<?xml version="1.0" encoding="UTF-8" standalone="no"?><svg xmlns="http://www.w3.org/2000/svg" xmlns:xlink="http://www.w3.org/1999/xlink" contentScriptType="application/ecmascript" contentStyleType="text/css" height="268px" preserveAspectRatio="none" style="width:275px;height:268px;" version="1.1" viewBox="0 0 275 268" width="275px" zoomAndPan="magnify"><defs><filter height="300%" id="f1qqifu4788c7t" width="300%" x="-1" y="-1"><feGaussianBlur result="blurOut" stdDeviation="2.0"/><feColorMatrix in="blurOut" result="blurOut2" type="matrix" values="0 0 0 0 0 0 0 0 0 0 0 0 0 0 0 0 0 0 .4 0"/><feOffset dx="4.0" dy="4.0" in="blurOut2" result="blurOut3"/><feBlend in="SourceGraphic" in2="blurOut3" mode="normal"/></filter></defs><g><!--MD5=[af2e38d02f001d6995fc9067fa42f2c1]
class Constructorable--><rect codeLine="1" fill="#FFFFFF" filter="url(#f1qqifu4788c7t)" height="41.0938" id="Constructorable" style="stroke:#000000;stroke-width:1.5;" width="94" x="81.5" y="110"/><text fill="#000000" font-family="sans-serif" font-size="12" font-style="italic" lengthAdjust="spacingAndGlyphs" textLength="88" x="84.5" y="127.457">Constructorable</text><line style="stroke:#000000;stroke-width:1.5;" x1="82.5" x2="174.5" y1="135.0938" y2="135.0938"/><line style="stroke:#000000;stroke-width:1.5;" x1="82.5" x2="174.5" y1="143.0938" y2="143.0938"/><!--MD5=[1b9b2a12b7193dc616a5ce97f8bc0bdc]
class TypeParameter--><rect fill="#FFFFFF" filter="url(#f1qqifu4788c7t)" height="25.0938" id="TypeParameter" style="stroke:#000000;stroke-width:1.5;" width="90" x="11.5" y="229"/><text fill="#000000" font-family="sans-serif" font-size="12" lengthAdjust="spacingAndGlyphs" textLength="84" x="14.5" y="246.457">TypeParameter</text><!--MD5=[faebc81c07309c527f2fda51bf6b78ab]
class Annotation--><rect fill="#FFFFFF" filter="url(#f1qqifu4788c7t)" height="25.0938" id="Annotation" style="stroke:#000000;stroke-width:1.5;" width="64" x="168.5" y="229"/><text fill="#000000" font-family="sans-serif" font-size="12" lengthAdjust="spacingAndGlyphs" textLength="58" x="171.5" y="246.457">Annotation</text><!--MD5=[e4971eecc035fba9c4cdf4fe8376cd43]
class AccessModifier--><rect fill="#FFFFFF" filter="url(#f1qqifu4788c7t)" height="25.0938" id="AccessModifier" style="stroke:#000000;stroke-width:1.5;" width="89" x="151" y="7"/><text fill="#000000" font-family="sans-serif" font-size="12" lengthAdjust="spacingAndGlyphs" textLength="83" x="154" y="24.457">AccessModifier</text><!--MD5=[94f51e032bb2685211984a7eb70e75c9]
class ParameterSeqLike--><rect fill="#FFFFFF" filter="url(#f1qqifu4788c7t)" height="25.0938" id="ParameterSeqLike" style="stroke:#000000;stroke-width:1.5;" width="109" x="7" y="7"/><text fill="#000000" font-family="sans-serif" font-size="12" lengthAdjust="spacingAndGlyphs" textLength="103" x="10" y="24.457">ParameterSeqLike</text><!--MD5=[b70ab6408564483b279c6f8f0f72b85d]
link Constructorable to TypeParameter--><path codeLine="3" d="M73.7903,158.0399 C73.7903,158.0399 58.18,172.31 53.5,181 C47.85,191.5 47.9,204.62 49.66,215.86 " fill="none" id="Constructorable-TypeParameter" style="stroke:#000000;stroke-width:1.0;"/><polygon fill="#000000" points="52.5,228.76,54.4685,219.1099,51.4235,223.8773,46.6561,220.8323,52.5,228.76" style="stroke:#000000;stroke-width:1.0;"/><line style="stroke:#000000;stroke-width:1.0;" x1="51.4235" x2="49.705" y1="223.8773" y2="216.06"/><polygon fill="#FFFFFF" points="83.58,151.1,76.3719,151.3067,73.7903,158.0399,80.9984,157.8332,83.58,151.1" style="stroke:#000000;stroke-width:1.0;"/><text fill="#000000" font-family="sans-serif" font-size="13" lengthAdjust="spacingAndGlyphs" textLength="102" x="54.5" y="195.4951">genericParameter</text><text fill="#000000" font-family="sans-serif" font-size="13" lengthAdjust="spacingAndGlyphs" textLength="5" x="34.5781" y="218.1395">*</text><!--MD5=[57e4c9ade2fdddc01653a94adb888dd4]
link Constructorable to Annotation--><path codeLine="4" d="M148.3594,161.2126 C148.3594,161.2126 157.54,175.01 161.5,181 C169.5,193.11 178.38,206.63 185.63,217.73 " fill="none" id="Constructorable-Annotation" style="stroke:#000000;stroke-width:1.0;"/><polygon fill="#000000" points="192.76,228.63,191.1788,218.9089,190.0221,224.4462,184.4848,223.2895,192.76,228.63" style="stroke:#000000;stroke-width:1.0;"/><line style="stroke:#000000;stroke-width:1.0;" x1="190.0221" x2="185.645" y1="224.4462" y2="217.75"/><polygon fill="#FFFFFF" points="141.7,151.23,141.7022,158.4411,148.3594,161.2126,148.3572,154.0015,141.7,151.23" style="stroke:#000000;stroke-width:1.0;"/><text fill="#000000" font-family="sans-serif" font-size="13" lengthAdjust="spacingAndGlyphs" textLength="94" x="173.5" y="195.4951">modAnnotations</text><text fill="#000000" font-family="sans-serif" font-size="13" lengthAdjust="spacingAndGlyphs" textLength="0" x="189.323" y="185.4135"/><text fill="#000000" font-family="sans-serif" font-size="13" lengthAdjust="spacingAndGlyphs" textLength="0" x="185.323" y="201.7651"/><text fill="#000000" font-family="sans-serif" font-size="13" lengthAdjust="spacingAndGlyphs" textLength="5" x="184.823" y="218.1167">*</text><!--MD5=[5adc6f2b842a5a321e3af4593f1e8640]
link AccessModifier to Constructorable--><path codeLine="5" d="M181.4,43.44 C171.52,59.51 146.8699,99.6306 146.8699,99.6306 " fill="none" id="AccessModifier-Constructorable" style="stroke:#000000;stroke-width:1.0;"/><polygon fill="#FFFFFF" points="140.58,109.85,147.1314,106.8369,146.8699,99.6306,140.3185,102.6436,140.58,109.85" style="stroke:#000000;stroke-width:1.0;"/><polygon fill="#000000" points="188.33,32.16,180.2113,37.7356,185.7132,36.4206,187.0282,41.9224,188.33,32.16" style="stroke:#000000;stroke-width:1.0;"/><line style="stroke:#000000;stroke-width:1.0;" x1="185.7132" x2="181.525" y1="36.4206" y2="43.24"/><text fill="#000000" font-family="sans-serif" font-size="13" lengthAdjust="spacingAndGlyphs" textLength="94" x="170.5" y="76.4951">accessModifiers</text><text fill="#000000" font-family="sans-serif" font-size="13" lengthAdjust="spacingAndGlyphs" textLength="0" x="185.3281" y="53.4394"/><text fill="#000000" font-family="sans-serif" font-size="13" lengthAdjust="spacingAndGlyphs" textLength="5" x="178.8281" y="69.7909">*</text><!--MD5=[893d13445572c2a5411f6edb6aa94703]
link ParameterSeqLike to Constructorable--><path codeLine="6" d="M56.6,45.4 C55.62,56.53 56.19,69.48 61.5,80 C65.66,88.24 80.195,102.5991 80.195,102.5991 " fill="none" id="ParameterSeqLike-Constructorable" style="stroke:#000000;stroke-width:1.0;"/><polygon fill="#FFFFFF" points="89.68,109.95,87.3878,103.1129,80.195,102.5991,82.4872,109.4362,89.68,109.95" style="stroke:#000000;stroke-width:1.0;"/><polygon fill="#000000" points="58.54,32.17,53.2763,40.4943,57.8144,37.1171,61.1916,41.6552,58.54,32.17" style="stroke:#000000;stroke-width:1.0;"/><line style="stroke:#000000;stroke-width:1.0;" x1="57.8144" x2="56.66" y1="37.1171" y2="45.03"/><text fill="#000000" font-family="sans-serif" font-size="13" lengthAdjust="spacingAndGlyphs" textLength="88" x="62.5" y="76.4951">parameterSeqs</text><text fill="#000000" font-family="sans-serif" font-size="13" lengthAdjust="spacingAndGlyphs" textLength="5" x="41.1709" y="53.5947">*</text><!--MD5=[17d8dd957fc733bf6edfb1768a072b60]
@startuml Constructorabler
abstract class Constructorable 

Constructorable o-down-> " *  " TypeParameter : genericParameter 
Constructorable o-down-> "   \n\n  *" Annotation : modAnnotations 
Constructorable o-up-> "  \n*" AccessModifier : accessModifiers
Constructorable o-up-> " *  " ParameterSeqLike : parameterSeqs

hide circle
hide class members

skinparam class {
    BackgroundColor White
    ArrowColor Black
    BorderColor Black
}

@enduml

PlantUML version 1.2020.22(Sun Dec 06 10:36:27 CET 2020)
(GPL source distribution)
Java Runtime: Java(TM) SE Runtime Environment
JVM: Java HotSpot(TM) 64-Bit Server VM
Default Encoding: Cp1252
Language: de
Country: DE
--></g></svg>