<?xml version="1.0" encoding="UTF-8" standalone="no"?><svg xmlns="http://www.w3.org/2000/svg" xmlns:xlink="http://www.w3.org/1999/xlink" contentScriptType="application/ecmascript" contentStyleType="text/css" height="244px" preserveAspectRatio="none" style="width:463px;height:244px;" version="1.1" viewBox="0 0 463 244" width="463px" zoomAndPan="magnify"><defs><filter height="300%" id="fwbcvduaqgg7j" width="300%" x="-1" y="-1"><feGaussianBlur result="blurOut" stdDeviation="2.0"/><feColorMatrix in="blurOut" result="blurOut2" type="matrix" values="0 0 0 0 0 0 0 0 0 0 0 0 0 0 0 0 0 0 .4 0"/><feOffset dx="4.0" dy="4.0" in="blurOut2" result="blurOut3"/><feBlend in="SourceGraphic" in2="blurOut3" mode="normal"/></filter></defs><g><!--MD5=[c5e200be6f447a62ff0a64164e765e00]
class Lambda--><rect codeLine="1" fill="#FEFECE" filter="url(#fwbcvduaqgg7j)" height="70.0234" id="Lambda" style="stroke: #A80036; stroke-width: 1.5;" width="109" x="130.5" y="7"/><ellipse cx="154.5" cy="27.0938" fill="#A9DCDF" rx="11" ry="11" style="stroke: #A80036; stroke-width: 1.0;"/><path d="M156.6875,28.8594 L152.5469,28.8594 L152.125,29.8906 L152.5469,29.8906 Q153.1563,29.8906 153.4219,30.125 Q153.6875,30.3594 153.6875,30.75 Q153.6875,31.125 153.4219,31.3594 Q153.1563,31.5938 152.5469,31.5938 L150.25,31.5938 Q149.6406,31.5938 149.3828,31.3594 Q149.125,31.125 149.125,30.7344 Q149.125,30.3594 149.3984,30.1172 Q149.6719,29.875 150.2969,29.8906 L152.9688,23.2344 L151.8594,23.2344 Q151.25,23.2344 150.9844,23 Q150.7188,22.7656 150.7188,22.375 Q150.7188,22 150.9844,21.7656 Q151.25,21.5313 151.8594,21.5313 L155.5313,21.5313 L158.9219,29.8906 Q159.5156,29.8906 159.7031,30.0313 Q160.0938,30.2969 160.0938,30.75 Q160.0938,31.125 159.8359,31.3594 Q159.5781,31.5938 158.9688,31.5938 L156.6719,31.5938 Q156.0625,31.5938 155.7969,31.3594 Q155.5313,31.125 155.5313,30.7344 Q155.5313,30.3594 155.7969,30.125 Q156.0625,29.8906 156.6719,29.8906 L157.0938,29.8906 L156.6875,28.8594 Z M155.9688,27.1563 L154.6094,23.7813 L153.2344,27.1563 L155.9688,27.1563 Z "/><text fill="#000000" font-family="sans-serif" font-size="12" font-style="italic" lengthAdjust="spacingAndGlyphs" textLength="61" x="168.5" y="24.457">«interface»</text><text fill="#000000" font-family="sans-serif" font-size="12" font-style="italic" lengthAdjust="spacingAndGlyphs" textLength="47" x="175.5" y="39.5508">Lambda</text><line style="stroke: #A80036; stroke-width: 1.5;" x1="131.5" x2="238.5" y1="47.1875" y2="47.1875"/><line style="stroke: #A80036; stroke-width: 1.5;" x1="131.5" x2="238.5" y1="55.1875" y2="55.1875"/><ellipse cx="141.5" cy="66.1875" fill="#84BE84" rx="3" ry="3" style="stroke: #038048; stroke-width: 1.0;"/><text fill="#000000" font-family="sans-serif" font-size="11" lengthAdjust="spacingAndGlyphs" textLength="83" x="150.5" y="70.6064">reduce():Lambda</text><!--MD5=[1e667c6ad6db7468aaf1f24fbbf1ec5d]
class Variable--><rect codeLine="4" fill="#FEFECE" filter="url(#fwbcvduaqgg7j)" height="61.8359" id="Variable" style="stroke: #A80036; stroke-width: 1.5;" width="98" x="7" y="162"/><ellipse cx="31.45" cy="178" fill="#ADD1B2" rx="11" ry="11" style="stroke: #A80036; stroke-width: 1.0;"/><path d="M34.2156,173.875 Q34.3719,173.6563 34.5594,173.5469 Q34.7469,173.4375 34.9656,173.4375 Q35.3406,173.4375 35.575,173.6953 Q35.8094,173.9531 35.8094,174.5625 L35.8094,176.0156 Q35.8094,176.625 35.575,176.8906 Q35.3406,177.1563 34.9656,177.1563 Q34.6219,177.1563 34.4188,176.9531 Q34.2156,176.7656 34.1063,176.25 Q34.0594,175.8906 33.8719,175.7031 Q33.5438,175.3281 32.9344,175.1094 Q32.325,174.8906 31.7,174.8906 Q30.9344,174.8906 30.3016,175.2188 Q29.6688,175.5469 29.1766,176.2969 Q28.6844,177.0469 28.6844,178.0781 L28.6844,179.1719 Q28.6844,180.4063 29.575,181.2266 Q30.4656,182.0469 32.0594,182.0469 Q32.9969,182.0469 33.6531,181.7969 Q34.0438,181.6406 34.4656,181.2031 Q34.7313,180.9375 34.8797,180.8594 Q35.0281,180.7813 35.2313,180.7813 Q35.5594,180.7813 35.8172,181.0391 Q36.075,181.2969 36.075,181.6406 Q36.075,181.9844 35.7313,182.3906 Q35.2313,182.9688 34.4344,183.2969 Q33.3563,183.75 32.0594,183.75 Q30.5438,183.75 29.3406,183.125 Q28.3563,182.625 27.6688,181.5547 Q26.9813,180.4844 26.9813,179.2031 L26.9813,178.0469 Q26.9813,176.7188 27.5984,175.5703 Q28.2156,174.4219 29.3094,173.8047 Q30.4031,173.1875 31.6375,173.1875 Q32.3719,173.1875 33.0203,173.3516 Q33.6688,173.5156 34.2156,173.875 Z "/><text fill="#000000" font-family="sans-serif" font-size="12" lengthAdjust="spacingAndGlyphs" textLength="45" x="47.55" y="182.9102">Variable</text><line style="stroke: #A80036; stroke-width: 1.5;" x1="8" x2="104" y1="194" y2="194"/><rect fill="none" height="6" style="stroke: #C82930; stroke-width: 1.0;" width="6" x="15" y="202"/><text fill="#000000" font-family="sans-serif" font-size="11" lengthAdjust="spacingAndGlyphs" textLength="72" x="27" y="209.4189">identifier:String</text><line style="stroke: #A80036; stroke-width: 1.5;" x1="8" x2="104" y1="215.8359" y2="215.8359"/><!--MD5=[f7e5aaedf1b25aad9b447cdf8dba2a20]
class Abstraction--><rect codeLine="7" fill="#FEFECE" filter="url(#fwbcvduaqgg7j)" height="61.8359" id="Abstraction" style="stroke: #A80036; stroke-width: 1.5;" width="107" x="140.5" y="162"/><ellipse cx="161.8" cy="178" fill="#ADD1B2" rx="11" ry="11" style="stroke: #A80036; stroke-width: 1.0;"/><path d="M164.5656,173.875 Q164.7219,173.6563 164.9094,173.5469 Q165.0969,173.4375 165.3156,173.4375 Q165.6906,173.4375 165.925,173.6953 Q166.1594,173.9531 166.1594,174.5625 L166.1594,176.0156 Q166.1594,176.625 165.925,176.8906 Q165.6906,177.1563 165.3156,177.1563 Q164.9719,177.1563 164.7688,176.9531 Q164.5656,176.7656 164.4563,176.25 Q164.4094,175.8906 164.2219,175.7031 Q163.8938,175.3281 163.2844,175.1094 Q162.675,174.8906 162.05,174.8906 Q161.2844,174.8906 160.6516,175.2188 Q160.0188,175.5469 159.5266,176.2969 Q159.0344,177.0469 159.0344,178.0781 L159.0344,179.1719 Q159.0344,180.4063 159.925,181.2266 Q160.8156,182.0469 162.4094,182.0469 Q163.3469,182.0469 164.0031,181.7969 Q164.3938,181.6406 164.8156,181.2031 Q165.0813,180.9375 165.2297,180.8594 Q165.3781,180.7813 165.5813,180.7813 Q165.9094,180.7813 166.1672,181.0391 Q166.425,181.2969 166.425,181.6406 Q166.425,181.9844 166.0813,182.3906 Q165.5813,182.9688 164.7844,183.2969 Q163.7063,183.75 162.4094,183.75 Q160.8938,183.75 159.6906,183.125 Q158.7063,182.625 158.0188,181.5547 Q157.3313,180.4844 157.3313,179.2031 L157.3313,178.0469 Q157.3313,176.7188 157.9484,175.5703 Q158.5656,174.4219 159.6594,173.8047 Q160.7531,173.1875 161.9875,173.1875 Q162.7219,173.1875 163.3703,173.3516 Q164.0188,173.5156 164.5656,173.875 Z "/><text fill="#000000" font-family="sans-serif" font-size="12" lengthAdjust="spacingAndGlyphs" textLength="61" x="177.2" y="182.9102">Abstraction</text><line style="stroke: #A80036; stroke-width: 1.5;" x1="141.5" x2="246.5" y1="194" y2="194"/><rect fill="none" height="6" style="stroke: #C82930; stroke-width: 1.0;" width="6" x="148.5" y="202"/><text fill="#000000" font-family="sans-serif" font-size="11" lengthAdjust="spacingAndGlyphs" textLength="81" x="160.5" y="209.4189">variable:Variable</text><line style="stroke: #A80036; stroke-width: 1.5;" x1="141.5" x2="246.5" y1="215.8359" y2="215.8359"/><!--MD5=[0b4e4b4980470ea387cc45de9bd14b5b]
class Application--><rect codeLine="10" fill="#FEFECE" filter="url(#fwbcvduaqgg7j)" height="75.6719" id="Application" style="stroke: #A80036; stroke-width: 1.5;" width="166" x="283" y="155"/><ellipse cx="331.75" cy="171" fill="#ADD1B2" rx="11" ry="11" style="stroke: #A80036; stroke-width: 1.0;"/><path d="M334.5156,166.875 Q334.6719,166.6563 334.8594,166.5469 Q335.0469,166.4375 335.2656,166.4375 Q335.6406,166.4375 335.875,166.6953 Q336.1094,166.9531 336.1094,167.5625 L336.1094,169.0156 Q336.1094,169.625 335.875,169.8906 Q335.6406,170.1563 335.2656,170.1563 Q334.9219,170.1563 334.7188,169.9531 Q334.5156,169.7656 334.4063,169.25 Q334.3594,168.8906 334.1719,168.7031 Q333.8438,168.3281 333.2344,168.1094 Q332.625,167.8906 332,167.8906 Q331.2344,167.8906 330.6016,168.2188 Q329.9688,168.5469 329.4766,169.2969 Q328.9844,170.0469 328.9844,171.0781 L328.9844,172.1719 Q328.9844,173.4063 329.875,174.2266 Q330.7656,175.0469 332.3594,175.0469 Q333.2969,175.0469 333.9531,174.7969 Q334.3438,174.6406 334.7656,174.2031 Q335.0313,173.9375 335.1797,173.8594 Q335.3281,173.7813 335.5313,173.7813 Q335.8594,173.7813 336.1172,174.0391 Q336.375,174.2969 336.375,174.6406 Q336.375,174.9844 336.0313,175.3906 Q335.5313,175.9688 334.7344,176.2969 Q333.6563,176.75 332.3594,176.75 Q330.8438,176.75 329.6406,176.125 Q328.6563,175.625 327.9688,174.5547 Q327.2813,173.4844 327.2813,172.2031 L327.2813,171.0469 Q327.2813,169.7188 327.8984,168.5703 Q328.5156,167.4219 329.6094,166.8047 Q330.7031,166.1875 331.9375,166.1875 Q332.6719,166.1875 333.3203,166.3516 Q333.9688,166.5156 334.5156,166.875 Z "/><text fill="#000000" font-family="sans-serif" font-size="12" lengthAdjust="spacingAndGlyphs" textLength="60" x="352.25" y="175.9102">Application</text><line style="stroke: #A80036; stroke-width: 1.5;" x1="284" x2="448" y1="187" y2="187"/><rect fill="none" height="6" style="stroke: #C82930; stroke-width: 1.0;" width="6" x="291" y="195"/><text fill="#000000" font-family="sans-serif" font-size="11" lengthAdjust="spacingAndGlyphs" textLength="139" x="303" y="202.4189">innerLambdaTermL : Lambda</text><rect fill="none" height="6" style="stroke: #C82930; stroke-width: 1.0;" width="6" x="291" y="208.8359"/><text fill="#000000" font-family="sans-serif" font-size="11" lengthAdjust="spacingAndGlyphs" textLength="140" x="303" y="216.2549">innerLambdaTermR : Lambda</text><line style="stroke: #A80036; stroke-width: 1.5;" x1="284" x2="448" y1="222.6719" y2="222.6719"/><!--MD5=[aeed6cea7c7e2538775360b5c31c46fb]
reverse link Lambda to Variable--><path codeLine="14" d="M142.31,92.31 C122.52,115.17 99.63,141.61 82.39,161.52 " fill="none" id="Lambda-backto-Variable" style="stroke: #A80036; stroke-width: 1.0;"/><polygon fill="none" points="137.02,87.72,155.4,77.18,147.61,96.89,137.02,87.72" style="stroke: #A80036; stroke-width: 1.0;"/><!--MD5=[70cd62f126d3ec4dbe504616daec3620]
reverse link Lambda to Abstraction--><path codeLine="15" d="M177.26,97.42 C176.84,106.63 176.95,116.1 178,125 C179.44,137.23 182.31,150.47 185.23,161.92 " fill="none" id="Lambda-backto-Abstraction" style="stroke: #A80036; stroke-width: 1.0;"/><polygon fill="none" points="170.3,96.69,178.97,77.36,184.25,97.88,170.3,96.69" style="stroke: #A80036; stroke-width: 1.0;"/><!--MD5=[a394eca31b0dc6e2fb64a372807f909f]
link Abstraction to Lambda--><path codeLine="17" d="M192.16,161.52 C190.78,138.64 188.87,107.14 187.38,82.36 " fill="none" id="Abstraction-to-Lambda" style="stroke: #A80036; stroke-width: 1.0;"/><polygon fill="#A80036" points="187.06,77.18,183.6078,86.404,187.3603,82.171,191.5933,85.9235,187.06,77.18" style="stroke: #A80036; stroke-width: 1.0;"/><text fill="#000000" font-family="sans-serif" font-size="13" lengthAdjust="spacingAndGlyphs" textLength="103" x="195" y="121.4951">innerLambdaTerm</text><text fill="#000000" font-family="sans-serif" font-size="13" lengthAdjust="spacingAndGlyphs" textLength="7" x="179.8035" y="98.3958">1</text><!--MD5=[e3d8b11f4570c38a2c16e53a72014e5d]
reverse link Lambda to Application--><path codeLine="16" d="M257.6,73.78 C274.84,83 292.44,94.14 307,107 C322.21,120.44 335.49,138.58 345.58,154.64 " fill="none" id="Lambda-backto-Application" style="stroke: #A80036; stroke-width: 1.0;"/><polygon fill="none" points="254.27,79.94,239.54,64.71,260.56,67.43,254.27,79.94" style="stroke: #A80036; stroke-width: 1.0;"/><!--MD5=[e572bc5fefac2650d2d781ecb41de775]
@startuml 
abstract class Lambda <<interface>> {
    + reduce():Lambda 
}
class Variable {
    - identifier:String  
}
class Abstraction {
    - variable:Variable
}
class Application {
    - innerLambdaTermL : Lambda
    - innerLambdaTermR : Lambda 
}
Lambda <|- - Variable 
Lambda <|- - Abstraction 
Lambda <|- - Application 
Abstraction - -> "1" Lambda : " innerLambdaTerm"

@enduml

PlantUML version 1.2020.18(Wed Sep 30 21:40:44 CEST 2020)
(GPL source distribution)
Java Runtime: Java(TM) SE Runtime Environment
JVM: Java HotSpot(TM) 64-Bit Server VM
Default Encoding: Cp1252
Language: de
Country: DE
--></g></svg>