<?xml version="1.0" encoding="UTF-8" standalone="no"?><svg xmlns="http://www.w3.org/2000/svg" xmlns:xlink="http://www.w3.org/1999/xlink" contentScriptType="application/ecmascript" contentStyleType="text/css" height="178px" preserveAspectRatio="none" style="width:402px;height:178px;" version="1.1" viewBox="0 0 402 178" width="402px" zoomAndPan="magnify"><defs><filter height="300%" id="f1bwb1a1q5yeuh" width="300%" x="-1" y="-1"><feGaussianBlur result="blurOut" stdDeviation="2.0"/><feColorMatrix in="blurOut" result="blurOut2" type="matrix" values="0 0 0 0 0 0 0 0 0 0 0 0 0 0 0 0 0 0 .4 0"/><feOffset dx="4.0" dy="4.0" in="blurOut2" result="blurOut3"/><feBlend in="SourceGraphic" in2="blurOut3" mode="normal"/></filter></defs><g><!--MD5=[3723a51b30c03a1df18efd0f4a91de8b]
class StereotypeContainer--><rect codeLine="1" fill="#FEFECE" filter="url(#f1bwb1a1q5yeuh)" height="157.0391" id="StereotypeContainer" style="stroke: #A80036; stroke-width: 1.5;" width="381" x="7" y="7"/><ellipse cx="137.25" cy="27.0938" fill="#ADD1B2" rx="11" ry="11" style="stroke: #A80036; stroke-width: 1.0;"/><path d="M140.0156,22.9688 Q140.1719,22.75 140.3594,22.6406 Q140.5469,22.5313 140.7656,22.5313 Q141.1406,22.5313 141.375,22.7891 Q141.6094,23.0469 141.6094,23.6563 L141.6094,25.1094 Q141.6094,25.7188 141.375,25.9844 Q141.1406,26.25 140.7656,26.25 Q140.4219,26.25 140.2188,26.0469 Q140.0156,25.8594 139.9063,25.3438 Q139.8594,24.9844 139.6719,24.7969 Q139.3438,24.4219 138.7344,24.2031 Q138.125,23.9844 137.5,23.9844 Q136.7344,23.9844 136.1016,24.3125 Q135.4688,24.6406 134.9766,25.3906 Q134.4844,26.1406 134.4844,27.1719 L134.4844,28.2656 Q134.4844,29.5 135.375,30.3203 Q136.2656,31.1406 137.8594,31.1406 Q138.7969,31.1406 139.4531,30.8906 Q139.8438,30.7344 140.2656,30.2969 Q140.5313,30.0313 140.6797,29.9531 Q140.8281,29.875 141.0313,29.875 Q141.3594,29.875 141.6172,30.1328 Q141.875,30.3906 141.875,30.7344 Q141.875,31.0781 141.5313,31.4844 Q141.0313,32.0625 140.2344,32.3906 Q139.1563,32.8438 137.8594,32.8438 Q136.3438,32.8438 135.1406,32.2188 Q134.1563,31.7188 133.4688,30.6484 Q132.7813,29.5781 132.7813,28.2969 L132.7813,27.1406 Q132.7813,25.8125 133.3984,24.6641 Q134.0156,23.5156 135.1094,22.8984 Q136.2031,22.2813 137.4375,22.2813 Q138.1719,22.2813 138.8203,22.4453 Q139.4688,22.6094 140.0156,22.9688 Z "/><text fill="#000000" font-family="sans-serif" font-size="12" font-style="italic" lengthAdjust="spacingAndGlyphs" textLength="69" x="179.25" y="24.457">«class_ster»</text><text fill="#000000" font-family="sans-serif" font-size="12" lengthAdjust="spacingAndGlyphs" textLength="112" x="157.75" y="39.5508">StereotypeContainer</text><line style="stroke: #A80036; stroke-width: 1.5;" x1="8" x2="387" y1="47.1875" y2="47.1875"/><text fill="#000000" font-family="sans-serif" font-size="11" lengthAdjust="spacingAndGlyphs" textLength="248" x="13" y="62.6064">«attr_ster taggedValue1,...,taggedValueN» attribute</text><line style="stroke: #A80036; stroke-width: 1.0;" x1="8" x2="387" y1="69.0234" y2="69.0234"/><text fill="#000000" font-family="sans-serif" font-size="11" lengthAdjust="spacingAndGlyphs" textLength="258" x="13" y="84.4424">«op_ster taggedValue1,...,taggedValueN» operation()</text><text fill="#000000" font-family="sans-serif" font-size="11" lengthAdjust="spacingAndGlyphs" textLength="369" x="13" y="98.2783">operation2(«param_ster taggedValue1,...,taggedValueN» param:ParamType)</text><text fill="#000000" font-family="sans-serif" font-size="11" lengthAdjust="spacingAndGlyphs" textLength="67" x="13" y="129.9502">taggedValue1</text><text fill="#000000" font-family="sans-serif" font-size="11" lengthAdjust="spacingAndGlyphs" textLength="9" x="13" y="143.7861">...</text><text fill="#000000" font-family="sans-serif" font-size="11" lengthAdjust="spacingAndGlyphs" textLength="68" x="13" y="157.6221">taggedValueN</text><line style="stroke: #A80036; stroke-width: 1.0;" x1="8" x2="160" y1="111.6133" y2="111.6133"/><text fill="#000000" font-family="sans-serif" font-size="11" lengthAdjust="spacingAndGlyphs" textLength="75" x="160" y="115.6143">&lt;&lt;class_ster&gt;&gt;</text><line style="stroke: #A80036; stroke-width: 1.0;" x1="235" x2="387" y1="111.6133" y2="111.6133"/><!--MD5=[26db2bd3034da75f3f60233567c8d79d]
@startuml
class StereotypeContainer <<class_ster>> {
    <<attr_ster taggedValue1,...,taggedValueN>> attribute
    - -
    <<op_ster taggedValue1,...,taggedValueN>> operation()
    operation2(<<param_ster taggedValue1,...,taggedValueN>> param:ParamType)
    - - <<class_ster>> - -
    taggedValue1 
    ...
    taggedValueN 
}
@enduml

PlantUML version 1.2020.18(Wed Sep 30 21:40:44 CEST 2020)
(GPL source distribution)
Java Runtime: Java(TM) SE Runtime Environment
JVM: Java HotSpot(TM) 64-Bit Server VM
Default Encoding: Cp1252
Language: de
Country: DE
--></g></svg>