<?xml version="1.0" encoding="UTF-8" standalone="no"?><svg xmlns="http://www.w3.org/2000/svg" xmlns:xlink="http://www.w3.org/1999/xlink" contentScriptType="application/ecmascript" contentStyleType="text/css" height="237px" preserveAspectRatio="none" style="width:183px;height:237px;" version="1.1" viewBox="0 0 183 237" width="183px" zoomAndPan="magnify"><defs><filter height="300%" id="fog7ejxg3vg57" width="300%" x="-1" y="-1"><feGaussianBlur result="blurOut" stdDeviation="2.0"/><feColorMatrix in="blurOut" result="blurOut2" type="matrix" values="0 0 0 0 0 0 0 0 0 0 0 0 0 0 0 0 0 0 .4 0"/><feOffset dx="4.0" dy="4.0" in="blurOut2" result="blurOut3"/><feBlend in="SourceGraphic" in2="blurOut3" mode="normal"/></filter></defs><g><!--MD5=[dd6c0936afd5dcfd007eba3761e014fe]
cluster pkg_1--><polygon fill="#FFFFFF" filter="url(#fog7ejxg3vg57)" points="16,6,64,6,71,29.6094,166,29.6094,166,106,16,106,16,6" style="stroke: #000000; stroke-width: 1.5;"/><line style="stroke: #000000; stroke-width: 1.5;" x1="16" x2="71" y1="29.6094" y2="29.6094"/><text fill="#000000" font-family="sans-serif" font-size="14" font-weight="bold" lengthAdjust="spacingAndGlyphs" textLength="42" x="20" y="22.5332">pkg_1</text><!--MD5=[00915e6db73a7cf3e22713872f1ef11a]
cluster pkg_2--><polygon fill="#FFFFFF" filter="url(#fog7ejxg3vg57)" points="16,130,64,130,71,153.6094,166,153.6094,166,230,16,230,16,130" style="stroke: #000000; stroke-width: 1.5;"/><line style="stroke: #000000; stroke-width: 1.5;" x1="16" x2="71" y1="153.6094" y2="153.6094"/><text fill="#000000" font-family="sans-serif" font-size="14" font-weight="bold" lengthAdjust="spacingAndGlyphs" textLength="42" x="20" y="146.5332">pkg_2</text><!--MD5=[a8daddc2dda4666649b9f465c93dee35]
class pkg_1.ClassDefinition--><rect codeLine="2" fill="#FEFECE" filter="url(#fog7ejxg3vg57)" height="48" id="pkg_1.ClassDefinition" style="stroke: #A80036; stroke-width: 1.5;" width="117" x="32.5" y="42"/><ellipse cx="47.5" cy="58" fill="#ADD1B2" rx="11" ry="11" style="stroke: #A80036; stroke-width: 1.0;"/><path d="M50.2656,53.875 Q50.4219,53.6563 50.6094,53.5469 Q50.7969,53.4375 51.0156,53.4375 Q51.3906,53.4375 51.625,53.6953 Q51.8594,53.9531 51.8594,54.5625 L51.8594,56.0156 Q51.8594,56.625 51.625,56.8906 Q51.3906,57.1563 51.0156,57.1563 Q50.6719,57.1563 50.4688,56.9531 Q50.2656,56.7656 50.1563,56.25 Q50.1094,55.8906 49.9219,55.7031 Q49.5938,55.3281 48.9844,55.1094 Q48.375,54.8906 47.75,54.8906 Q46.9844,54.8906 46.3516,55.2188 Q45.7188,55.5469 45.2266,56.2969 Q44.7344,57.0469 44.7344,58.0781 L44.7344,59.1719 Q44.7344,60.4063 45.625,61.2266 Q46.5156,62.0469 48.1094,62.0469 Q49.0469,62.0469 49.7031,61.7969 Q50.0938,61.6406 50.5156,61.2031 Q50.7813,60.9375 50.9297,60.8594 Q51.0781,60.7813 51.2813,60.7813 Q51.6094,60.7813 51.8672,61.0391 Q52.125,61.2969 52.125,61.6406 Q52.125,61.9844 51.7813,62.3906 Q51.2813,62.9688 50.4844,63.2969 Q49.4063,63.75 48.1094,63.75 Q46.5938,63.75 45.3906,63.125 Q44.4063,62.625 43.7188,61.5547 Q43.0313,60.4844 43.0313,59.2031 L43.0313,58.0469 Q43.0313,56.7188 43.6484,55.5703 Q44.2656,54.4219 45.3594,53.8047 Q46.4531,53.1875 47.6875,53.1875 Q48.4219,53.1875 49.0703,53.3516 Q49.7188,53.5156 50.2656,53.875 Z "/><text fill="#000000" font-family="sans-serif" font-size="12" lengthAdjust="spacingAndGlyphs" textLength="85" x="61.5" y="62.9102">ClassDefinition</text><line style="stroke: #A80036; stroke-width: 1.5;" x1="33.5" x2="148.5" y1="74" y2="74"/><line style="stroke: #A80036; stroke-width: 1.5;" x1="33.5" x2="148.5" y1="82" y2="82"/><!--MD5=[6dce74351a9c2c2fa417e3cc9b1e7d3c]
class pkg_2.ClassDefinition--><rect codeLine="7" fill="#FEFECE" filter="url(#fog7ejxg3vg57)" height="48" id="pkg_2.ClassDefinition" style="stroke: #A80036; stroke-width: 1.5;" width="117" x="32.5" y="166"/><ellipse cx="47.5" cy="182" fill="#ADD1B2" rx="11" ry="11" style="stroke: #A80036; stroke-width: 1.0;"/><path d="M50.2656,177.875 Q50.4219,177.6563 50.6094,177.5469 Q50.7969,177.4375 51.0156,177.4375 Q51.3906,177.4375 51.625,177.6953 Q51.8594,177.9531 51.8594,178.5625 L51.8594,180.0156 Q51.8594,180.625 51.625,180.8906 Q51.3906,181.1563 51.0156,181.1563 Q50.6719,181.1563 50.4688,180.9531 Q50.2656,180.7656 50.1563,180.25 Q50.1094,179.8906 49.9219,179.7031 Q49.5938,179.3281 48.9844,179.1094 Q48.375,178.8906 47.75,178.8906 Q46.9844,178.8906 46.3516,179.2188 Q45.7188,179.5469 45.2266,180.2969 Q44.7344,181.0469 44.7344,182.0781 L44.7344,183.1719 Q44.7344,184.4063 45.625,185.2266 Q46.5156,186.0469 48.1094,186.0469 Q49.0469,186.0469 49.7031,185.7969 Q50.0938,185.6406 50.5156,185.2031 Q50.7813,184.9375 50.9297,184.8594 Q51.0781,184.7813 51.2813,184.7813 Q51.6094,184.7813 51.8672,185.0391 Q52.125,185.2969 52.125,185.6406 Q52.125,185.9844 51.7813,186.3906 Q51.2813,186.9688 50.4844,187.2969 Q49.4063,187.75 48.1094,187.75 Q46.5938,187.75 45.3906,187.125 Q44.4063,186.625 43.7188,185.5547 Q43.0313,184.4844 43.0313,183.2031 L43.0313,182.0469 Q43.0313,180.7188 43.6484,179.5703 Q44.2656,178.4219 45.3594,177.8047 Q46.4531,177.1875 47.6875,177.1875 Q48.4219,177.1875 49.0703,177.3516 Q49.7188,177.5156 50.2656,177.875 Z "/><text fill="#000000" font-family="sans-serif" font-size="12" lengthAdjust="spacingAndGlyphs" textLength="85" x="61.5" y="186.9102">ClassDefinition</text><line style="stroke: #A80036; stroke-width: 1.5;" x1="33.5" x2="148.5" y1="198" y2="198"/><line style="stroke: #A80036; stroke-width: 1.5;" x1="33.5" x2="148.5" y1="206" y2="206"/><!--MD5=[9f246796446eac0068745240ab0ba193]
link pkg_1.ClassDefinition to pkg_2.ClassDefinition--><path codeLine="3" d="M80.73,90.23 C77.66,110.33 77.44,139.45 80.06,160.86 " fill="none" id="pkg_1.ClassDefinition-to-pkg_2.ClassDefinition" style="stroke: #A80036; stroke-width: 1.0;"/><polygon fill="#A80036" points="80.75,165.85,83.4791,156.3868,80.0649,160.8972,75.5545,157.483,80.75,165.85" style="stroke: #A80036; stroke-width: 1.0;"/><!--MD5=[a78a8b8c81557564e391a92d79012ca2]
reverse link pkg_1.ClassDefinition to pkg_2.ClassDefinition--><path codeLine="4" d="M103.98,110.27 C105.11,129.01 104.4,150.18 101.86,165.85 " fill="none" id="pkg_1.ClassDefinition-backto-pkg_2.ClassDefinition" style="stroke: #A80036; stroke-width: 1.0;"/><polygon fill="none" points="97,110.86,101.87,90.23,110.93,109.39,97,110.86" style="stroke: #A80036; stroke-width: 1.0;"/><!--MD5=[70494b2db0c2af422016f01525657a02]
@startuml
namespace pkg_1 {
    class ClassDefinition 
    ClassDefinition - -> pkg_2.ClassDefinition
    ClassDefinition <|- - pkg_2.ClassDefinition
} 
namespace pkg_2 { 
    class ClassDefinition
}
@enduml

PlantUML version 1.2020.18(Wed Sep 30 21:40:44 CEST 2020)
(GPL source distribution)
Java Runtime: Java(TM) SE Runtime Environment
JVM: Java HotSpot(TM) 64-Bit Server VM
Default Encoding: Cp1252
Language: de
Country: DE
--></g></svg>