<?xml version="1.0" encoding="UTF-8" standalone="no"?><svg xmlns="http://www.w3.org/2000/svg" xmlns:xlink="http://www.w3.org/1999/xlink" contentScriptType="application/ecmascript" contentStyleType="text/css" height="353px" preserveAspectRatio="none" style="width:1924px;height:353px;" version="1.1" viewBox="0 0 1924 353" width="1924px" zoomAndPan="magnify"><defs><filter height="300%" id="f1irip8mky19hy" width="300%" x="-1" y="-1"><feGaussianBlur result="blurOut" stdDeviation="2.0"/><feColorMatrix in="blurOut" result="blurOut2" type="matrix" values="0 0 0 0 0 0 0 0 0 0 0 0 0 0 0 0 0 0 .4 0"/><feOffset dx="4.0" dy="4.0" in="blurOut2" result="blurOut3"/><feBlend in="SourceGraphic" in2="blurOut3" mode="normal"/></filter></defs><g><!--MD5=[e0cbd5d9ac13768cf3505d2bb427f4e9]
cluster uml--><polygon fill="#FFFFFF" filter="url(#f1irip8mky19hy)" points="16,6.3199,49,6.3199,56,29.9082,1652,29.9082,1652,338.3199,16,338.3199,16,6.3199" style="stroke:#000000;stroke-width:1.5;"/><line style="stroke:#000000;stroke-width:1.5;" x1="16" x2="56" y1="29.9082" y2="29.9082"/><text fill="#000000" font-family="Source Code Pro" font-size="14" font-weight="bold" lengthAdjust="spacingAndGlyphs" textLength="27" x="20" y="22.0883">uml</text><!--MD5=[04a466dbf193f6a72bb4b4f1cc49db31]
cluster uml::externalReferences--><polygon fill="#FFFFFF" filter="url(#f1irip8mky19hy)" points="1684,238.3199,1897,238.3199,1904,261.9082,1907,261.9082,1907,346.3199,1684,346.3199,1684,238.3199" style="stroke:#000000;stroke-width:1.5;"/><line style="stroke:#000000;stroke-width:1.5;" x1="1684" x2="1904" y1="261.9082" y2="261.9082"/><text fill="#000000" font-family="Source Code Pro" font-size="14" font-weight="bold" lengthAdjust="spacingAndGlyphs" textLength="207" x="1688" y="254.0883">uml::externalReferences</text><!--MD5=[4b0d444d6fd954fad8540ccf03fa2a65]
class uml.Relationship--><rect codeLine="2" fill="#FFFFFF" filter="url(#f1irip8mky19hy)" height="40.1514" id="uml.Relationship" style="stroke:#1B1F23;stroke-width:1.5;" width="90" x="1235" y="282.3199"/><text fill="#1B1F23" font-family="Source Code Pro" font-size="12" font-style="italic" lengthAdjust="spacingAndGlyphs" textLength="77" x="1241.5" y="299.1214">«caseclass»</text><text fill="#6F42C1" font-family="Source Code Pro" font-size="12" lengthAdjust="spacingAndGlyphs" textLength="84" x="1238" y="314.1971">Relationship</text><!--MD5=[d47e03c3e99130271c130b76fc2c7ece]
class uml.PackageRef--><rect codeLine="3" fill="#FFFFFF" filter="url(#f1irip8mky19hy)" height="40.1514" id="uml.PackageRef" style="stroke:#1B1F23;stroke-width:1.5;" width="79" x="32.5" y="282.3199"/><text fill="#1B1F23" font-family="Source Code Pro" font-size="12" font-style="italic" lengthAdjust="spacingAndGlyphs" textLength="77" x="33.5" y="299.1214">«caseclass»</text><text fill="#6F42C1" font-family="Source Code Pro" font-size="12" lengthAdjust="spacingAndGlyphs" textLength="70" x="37" y="314.1971">PackageRef</text><!--MD5=[e0124eabb7d48e09af1ec114f058ec98]
class uml.ClassRef--><rect codeLine="4" fill="#FFFFFF" filter="url(#f1irip8mky19hy)" height="40.1514" id="uml.ClassRef" style="stroke:#1B1F23;stroke-width:1.5;" width="79" x="146.5" y="282.3199"/><text fill="#1B1F23" font-family="Source Code Pro" font-size="12" font-style="italic" lengthAdjust="spacingAndGlyphs" textLength="77" x="147.5" y="299.1214">«caseclass»</text><text fill="#6F42C1" font-family="Source Code Pro" font-size="12" lengthAdjust="spacingAndGlyphs" textLength="56" x="158" y="314.1971">ClassRef</text><!--MD5=[dabd645c25f9cfe91884d4c36ddeefa4]
class uml.ConcreteClass--><rect codeLine="5" fill="#FFFFFF" filter="url(#f1irip8mky19hy)" height="40.1514" id="uml.ConcreteClass" style="stroke:#1B1F23;stroke-width:1.5;" width="97" x="260.5" y="282.3199"/><text fill="#1B1F23" font-family="Source Code Pro" font-size="12" font-style="italic" lengthAdjust="spacingAndGlyphs" textLength="77" x="270.5" y="299.1214">«caseclass»</text><text fill="#6F42C1" font-family="Source Code Pro" font-size="12" lengthAdjust="spacingAndGlyphs" textLength="91" x="263.5" y="314.1971">ConcreteClass</text><!--MD5=[98b8e9e3c3fb4746e2f5a8cd391d3618]
class uml.RelationshipElement--><rect codeLine="6" fill="#FFFFFF" filter="url(#f1irip8mky19hy)" height="40.1514" id="uml.RelationshipElement" style="stroke:#1B1F23;stroke-width:1.5;" width="139" x="32.5" y="143.3199"/><text fill="#1B1F23" font-family="Source Code Pro" font-size="12" font-style="italic" lengthAdjust="spacingAndGlyphs" textLength="49" x="77.5" y="160.1214">«trait»</text><text fill="#6F42C1" font-family="Source Code Pro" font-size="12" font-style="italic" lengthAdjust="spacingAndGlyphs" textLength="133" x="35.5" y="175.1971">RelationshipElement</text><!--MD5=[d2767930cd64984d0dbdf49c8cbbae3a]
class uml.Note--><rect codeLine="7" fill="#FFFFFF" filter="url(#f1irip8mky19hy)" height="40.1514" id="uml.Note" style="stroke:#1B1F23;stroke-width:1.5;" width="79" x="1360.5" y="282.3199"/><text fill="#1B1F23" font-family="Source Code Pro" font-size="12" font-style="italic" lengthAdjust="spacingAndGlyphs" textLength="77" x="1361.5" y="299.1214">«caseclass»</text><text fill="#6F42C1" font-family="Source Code Pro" font-size="12" lengthAdjust="spacingAndGlyphs" textLength="28" x="1386" y="314.1971">Note</text><!--MD5=[f50f0ab06e4036f575a1ca9766e78a8a]
class uml.Compartment--><rect codeLine="8" fill="#FFFFFF" filter="url(#f1irip8mky19hy)" height="40.1514" id="uml.Compartment" style="stroke:#1B1F23;stroke-width:1.5;" width="83" x="888.5" y="282.3199"/><text fill="#1B1F23" font-family="Source Code Pro" font-size="12" font-style="italic" lengthAdjust="spacingAndGlyphs" textLength="77" x="891.5" y="299.1214">«caseclass»</text><text fill="#6F42C1" font-family="Source Code Pro" font-size="12" lengthAdjust="spacingAndGlyphs" textLength="77" x="891.5" y="314.1971">Compartment</text><!--MD5=[e80b755d8843d4d901477a8a98114cdd]
class uml.Operation--><rect codeLine="9" fill="#FFFFFF" filter="url(#f1irip8mky19hy)" height="40.1514" id="uml.Operation" style="stroke:#1B1F23;stroke-width:1.5;" width="79" x="506.5" y="282.3199"/><text fill="#1B1F23" font-family="Source Code Pro" font-size="12" font-style="italic" lengthAdjust="spacingAndGlyphs" textLength="77" x="507.5" y="299.1214">«caseclass»</text><text fill="#6F42C1" font-family="Source Code Pro" font-size="12" lengthAdjust="spacingAndGlyphs" textLength="63" x="514.5" y="314.1971">Operation</text><!--MD5=[f56a4685cb4ca4925ee7867a666a708c]
class uml.Parameter--><rect codeLine="10" fill="#FFFFFF" filter="url(#f1irip8mky19hy)" height="40.1514" id="uml.Parameter" style="stroke:#1B1F23;stroke-width:1.5;" width="79" x="774.5" y="282.3199"/><text fill="#1B1F23" font-family="Source Code Pro" font-size="12" font-style="italic" lengthAdjust="spacingAndGlyphs" textLength="77" x="775.5" y="299.1214">«caseclass»</text><text fill="#6F42C1" font-family="Source Code Pro" font-size="12" lengthAdjust="spacingAndGlyphs" textLength="63" x="782.5" y="314.1971">Parameter</text><!--MD5=[4f6aca297efcf092bdf943af035e19f8]
class uml.Attribute--><rect codeLine="11" fill="#FFFFFF" filter="url(#f1irip8mky19hy)" height="40.1514" id="uml.Attribute" style="stroke:#1B1F23;stroke-width:1.5;" width="79" x="392.5" y="282.3199"/><text fill="#1B1F23" font-family="Source Code Pro" font-size="12" font-style="italic" lengthAdjust="spacingAndGlyphs" textLength="77" x="393.5" y="299.1214">«caseclass»</text><text fill="#6F42C1" font-family="Source Code Pro" font-size="12" lengthAdjust="spacingAndGlyphs" textLength="63" x="400.5" y="314.1971">Attribute</text><!--MD5=[1344c468506f8e7bd900f7a45298c9e9]
class uml.Class--><rect codeLine="12" fill="#FFFFFF" filter="url(#f1irip8mky19hy)" height="40.1514" id="uml.Class" style="stroke:#1B1F23;stroke-width:1.5;" width="79" x="1006.5" y="282.3199"/><text fill="#1B1F23" font-family="Source Code Pro" font-size="12" font-style="italic" lengthAdjust="spacingAndGlyphs" textLength="77" x="1007.5" y="299.1214">«caseclass»</text><text fill="#6F42C1" font-family="Source Code Pro" font-size="12" lengthAdjust="spacingAndGlyphs" textLength="35" x="1028.5" y="314.1971">Class</text><!--MD5=[523523399199742876e12608be62c841]
class uml.externalReferences--><rect codeLine="13" fill="#FFFFFF" filter="url(#f1irip8mky19hy)" height="40.1514" id="uml.externalReferences" style="stroke:#1B1F23;stroke-width:1.5;" width="132" x="1504" y="42.3199"/><text fill="#1B1F23" font-family="Source Code Pro" font-size="12" font-style="italic" lengthAdjust="spacingAndGlyphs" textLength="56" x="1542" y="59.1214">«object»</text><text fill="#6F42C1" font-family="Source Code Pro" font-size="12" lengthAdjust="spacingAndGlyphs" textLength="126" x="1507" y="74.1971">externalReferences</text><!--MD5=[1b2ae437a8f931f8118235355a8ebb06]
class uml.GenericParameter--><rect codeLine="14" fill="#FFFFFF" filter="url(#f1irip8mky19hy)" height="40.1514" id="uml.GenericParameter" style="stroke:#1B1F23;stroke-width:1.5;" width="118" x="621" y="282.3199"/><text fill="#1B1F23" font-family="Source Code Pro" font-size="12" font-style="italic" lengthAdjust="spacingAndGlyphs" textLength="77" x="641.5" y="299.1214">«caseclass»</text><text fill="#6F42C1" font-family="Source Code Pro" font-size="12" lengthAdjust="spacingAndGlyphs" textLength="112" x="624" y="314.1971">GenericParameter</text><!--MD5=[afbcf4ee3aeb81f3351e2a6f0a3c353f]
class uml.Package--><rect codeLine="15" fill="#FFFFFF" filter="url(#f1irip8mky19hy)" height="40.1514" id="uml.Package" style="stroke:#1B1F23;stroke-width:1.5;" width="79" x="1120.5" y="282.3199"/><text fill="#1B1F23" font-family="Source Code Pro" font-size="12" font-style="italic" lengthAdjust="spacingAndGlyphs" textLength="77" x="1121.5" y="299.1214">«caseclass»</text><text fill="#6F42C1" font-family="Source Code Pro" font-size="12" lengthAdjust="spacingAndGlyphs" textLength="49" x="1135.5" y="314.1971">Package</text><!--MD5=[18ae19209e21541f421fa7f36d133002]
class uml.UMLUnit--><rect codeLine="16" fill="#FFFFFF" filter="url(#f1irip8mky19hy)" height="40.1514" id="uml.UMLUnit" style="stroke:#1B1F23;stroke-width:1.5;" width="79" x="374.5" y="143.3199"/><text fill="#1B1F23" font-family="Source Code Pro" font-size="12" font-style="italic" lengthAdjust="spacingAndGlyphs" textLength="77" x="375.5" y="160.1214">«caseclass»</text><text fill="#6F42C1" font-family="Source Code Pro" font-size="12" lengthAdjust="spacingAndGlyphs" textLength="49" x="389.5" y="175.1971">UMLUnit</text><!--MD5=[7dc5668607f5bb193dbdb04898dfc5fa]
class uml.NamedElement--><rect codeLine="17" fill="#FFFFFF" filter="url(#f1irip8mky19hy)" height="40.1514" id="uml.NamedElement" style="stroke:#1B1F23;stroke-width:1.5;" width="90" x="489" y="143.3199"/><text fill="#1B1F23" font-family="Source Code Pro" font-size="12" font-style="italic" lengthAdjust="spacingAndGlyphs" textLength="49" x="509.5" y="160.1214">«trait»</text><text fill="#6F42C1" font-family="Source Code Pro" font-size="12" font-style="italic" lengthAdjust="spacingAndGlyphs" textLength="84" x="492" y="175.1971">NamedElement</text><!--MD5=[e2f0e83ca8ff0671af74454bee13f4e5]
class uml.RelateableElement--><rect codeLine="18" fill="#FFFFFF" filter="url(#f1irip8mky19hy)" height="40.1514" id="uml.RelateableElement" style="stroke:#1B1F23;stroke-width:1.5;" width="125" x="811.5" y="143.3199"/><text fill="#1B1F23" font-family="Source Code Pro" font-size="12" font-style="italic" lengthAdjust="spacingAndGlyphs" textLength="49" x="849.5" y="160.1214">«trait»</text><text fill="#6F42C1" font-family="Source Code Pro" font-size="12" font-style="italic" lengthAdjust="spacingAndGlyphs" textLength="119" x="814.5" y="175.1971">RelateableElement</text><!--MD5=[e7c479a9fc5803b8650c94c17510e72f]
class uml.PackageBodyElement--><rect codeLine="19" fill="#FFFFFF" filter="url(#f1irip8mky19hy)" height="40.1514" id="uml.PackageBodyElement" style="stroke:#1B1F23;stroke-width:1.5;" width="132" x="972" y="143.3199"/><text fill="#1B1F23" font-family="Source Code Pro" font-size="12" font-style="italic" lengthAdjust="spacingAndGlyphs" textLength="49" x="1013.5" y="160.1214">«trait»</text><text fill="#6F42C1" font-family="Source Code Pro" font-size="12" font-style="italic" lengthAdjust="spacingAndGlyphs" textLength="126" x="975" y="175.1971">PackageBodyElement</text><!--MD5=[c01f26eb8fba3698f9691485097fb757]
class uml.CompartmentElement--><rect codeLine="20" fill="#FFFFFF" filter="url(#f1irip8mky19hy)" height="40.1514" id="uml.CompartmentElement" style="stroke:#1B1F23;stroke-width:1.5;" width="132" x="207" y="143.3199"/><text fill="#1B1F23" font-family="Source Code Pro" font-size="12" font-style="italic" lengthAdjust="spacingAndGlyphs" textLength="49" x="248.5" y="160.1214">«trait»</text><text fill="#6F42C1" font-family="Source Code Pro" font-size="12" font-style="italic" lengthAdjust="spacingAndGlyphs" textLength="126" x="210" y="175.1971">CompartmentElement</text><!--MD5=[b8972002d5e0d7c9ac57536cafa37d58]
class uml.TopLevelElement--><rect codeLine="21" fill="#FFFFFF" filter="url(#f1irip8mky19hy)" height="40.1514" id="uml.TopLevelElement" style="stroke:#1B1F23;stroke-width:1.5;" width="111" x="1139.5" y="143.3199"/><text fill="#1B1F23" font-family="Source Code Pro" font-size="12" font-style="italic" lengthAdjust="spacingAndGlyphs" textLength="49" x="1170.5" y="160.1214">«trait»</text><text fill="#6F42C1" font-family="Source Code Pro" font-size="12" font-style="italic" lengthAdjust="spacingAndGlyphs" textLength="105" x="1142.5" y="175.1971">TopLevelElement</text><!--MD5=[57829a327a816364e8e8a3369f0ff20d]
class uml.StereotypeElement--><rect codeLine="22" fill="#FFFFFF" filter="url(#f1irip8mky19hy)" height="40.1514" id="uml.StereotypeElement" style="stroke:#1B1F23;stroke-width:1.5;" width="125" x="651.5" y="143.3199"/><text fill="#1B1F23" font-family="Source Code Pro" font-size="12" font-style="italic" lengthAdjust="spacingAndGlyphs" textLength="49" x="689.5" y="160.1214">«trait»</text><text fill="#6F42C1" font-family="Source Code Pro" font-size="12" font-style="italic" lengthAdjust="spacingAndGlyphs" textLength="119" x="654.5" y="175.1971">StereotypeElement</text><!--MD5=[33ffeff891f29a9a7abf458cbfc5f54f]
class uml.Stereotype--><rect codeLine="23" fill="#FFFFFF" filter="url(#f1irip8mky19hy)" height="40.1514" id="uml.Stereotype" style="stroke:#1B1F23;stroke-width:1.5;" width="79" x="1285.5" y="143.3199"/><text fill="#1B1F23" font-family="Source Code Pro" font-size="12" font-style="italic" lengthAdjust="spacingAndGlyphs" textLength="77" x="1286.5" y="160.1214">«caseclass»</text><text fill="#6F42C1" font-family="Source Code Pro" font-size="12" lengthAdjust="spacingAndGlyphs" textLength="70" x="1290" y="175.1971">Stereotype</text><!--MD5=[7b9f6577eaff6a7e3eb217a29bc788af]
class uml.TaggedValue--><rect codeLine="24" fill="#FFFFFF" filter="url(#f1irip8mky19hy)" height="40.1514" id="uml.TaggedValue" style="stroke:#1B1F23;stroke-width:1.5;" width="83" x="1399.5" y="143.3199"/><text fill="#1B1F23" font-family="Source Code Pro" font-size="12" font-style="italic" lengthAdjust="spacingAndGlyphs" textLength="77" x="1402.5" y="160.1214">«caseclass»</text><text fill="#6F42C1" font-family="Source Code Pro" font-size="12" lengthAdjust="spacingAndGlyphs" textLength="77" x="1402.5" y="175.1971">TaggedValue</text><!--MD5=[cdba5a4dfb160e6459d111c242367ee8]
class uml.UMLElement--><rect codeLine="25" fill="#FFFFFF" filter="url(#f1irip8mky19hy)" height="40.1514" id="uml.UMLElement" style="stroke:#1B1F23;stroke-width:1.5;" width="76" x="739" y="42.3199"/><text fill="#1B1F23" font-family="Source Code Pro" font-size="12" font-style="italic" lengthAdjust="spacingAndGlyphs" textLength="49" x="752.5" y="59.1214">«trait»</text><text fill="#6F42C1" font-family="Source Code Pro" font-size="12" font-style="italic" lengthAdjust="spacingAndGlyphs" textLength="70" x="742" y="74.1971">UMLElement</text><!--MD5=[156948cb7e0d9d6f1e7c8f0d907b358f]
class uml.RelationshipInfo--><rect fill="#FFFFFF" filter="url(#f1irip8mky19hy)" height="25.0757" id="uml.RelationshipInfo" style="stroke:#1B1F23;stroke-width:1.5;" width="118" x="1518" y="150.8199"/><text fill="#6F42C1" font-family="Source Code Pro" font-size="12" lengthAdjust="spacingAndGlyphs" textLength="112" x="1521" y="167.6214">RelationshipInfo</text><!--MD5=[e40533cbe0e10209cddf2f73eca222a5]
class uml::externalReferences.ClassDefRef--><rect codeLine="28" fill="#FFFFFF" filter="url(#f1irip8mky19hy)" height="40.1514" id="uml::externalReferences.ClassDefRef" style="stroke:#1B1F23;stroke-width:1.5;" width="83" x="1708.5" y="282.3199"/><text fill="#1B1F23" font-family="Source Code Pro" font-size="12" font-style="italic" lengthAdjust="spacingAndGlyphs" textLength="77" x="1711.5" y="299.1214">«caseclass»</text><text fill="#6F42C1" font-family="Source Code Pro" font-size="12" lengthAdjust="spacingAndGlyphs" textLength="77" x="1711.5" y="314.1971">ClassDefRef</text><!--MD5=[af2e8e8e91b7352207c74e7636065fd4]
reverse link uml.UMLElement to uml.TaggedValue--><path codeLine="30" d="M835.54,67.5399 C944.26,76.1399 1184.29,98.7899 1382,143.3199 C1387.67,144.5999 1393.57,146.1799 1399.36,147.8799 " fill="none" id="uml.UMLElement-backto-uml.TaggedValue" style="stroke:#1B1F23;stroke-width:1.0;"/><polygon fill="none" points="834.7,74.4899,815.29,65.9799,835.77,60.5299,834.7,74.4899" style="stroke:#1B1F23;stroke-width:1.0;"/><!--MD5=[2eb639305765bf82373a2bc767163d67]
reverse link uml.UMLElement to uml.Stereotype--><path codeLine="31" d="M835.46,69.7699 C928.1,80.6699 1113.93,105.3499 1268,143.3199 C1273.67,144.7199 1279.59,146.4099 1285.37,148.2099 " fill="none" id="uml.UMLElement-backto-uml.Stereotype" style="stroke:#1B1F23;stroke-width:1.0;"/><polygon fill="none" points="834.37,76.6899,815.31,67.4399,835.98,62.7799,834.37,76.6899" style="stroke:#1B1F23;stroke-width:1.0;"/><!--MD5=[ab12816a3544e1128c9095a2673c01a2]
reverse link uml.UMLElement to uml.StereotypeElement--><path codeLine="32" d="M754.11,99.2899 C744.63,114.1799 734.03,130.8399 726.11,143.2899 " fill="none" id="uml.UMLElement-backto-uml.StereotypeElement" style="stroke:#1B1F23;stroke-width:1.0;"/><polygon fill="none" points="748.21,95.5199,764.85,82.4099,760.02,103.0399,748.21,95.5199" style="stroke:#1B1F23;stroke-width:1.0;"/><!--MD5=[5db90fb5e09addee77f7d5423ce54584]
reverse link uml.UMLElement to uml.TopLevelElement--><path codeLine="33" d="M834.75,76.2199 C903.36,91.6499 1021.23,118.5299 1122,143.3199 C1127.6,144.6999 1133.42,146.1599 1139.24,147.6399 " fill="none" id="uml.UMLElement-backto-uml.TopLevelElement" style="stroke:#1B1F23;stroke-width:1.0;"/><polygon fill="none" points="833.09,83.0199,815.11,71.8099,836.16,69.3599,833.09,83.0199" style="stroke:#1B1F23;stroke-width:1.0;"/><!--MD5=[afb52035ed5d06c264932ae0720027ec]
reverse link uml.UMLElement to uml.CompartmentElement--><path codeLine="34" d="M719.25,73.6699 C638.17,88.3599 486.05,116.4399 357,143.3199 C351.29,144.5099 345.37,145.7799 339.44,147.0699 " fill="none" id="uml.UMLElement-backto-uml.CompartmentElement" style="stroke:#1B1F23;stroke-width:1.0;"/><polygon fill="none" points="718.05,66.7799,738.98,70.1099,720.54,80.5499,718.05,66.7799" style="stroke:#1B1F23;stroke-width:1.0;"/><!--MD5=[d002df4f12926bebc299c8b4cfc80b7f]
reverse link uml.UMLElement to uml.PackageBodyElement--><path codeLine="35" d="M833.97,84.9299 C879.79,102.3099 943.58,126.4999 987.57,143.1899 " fill="none" id="uml.UMLElement-backto-uml.PackageBodyElement" style="stroke:#1B1F23;stroke-width:1.0;"/><polygon fill="none" points="831.45,91.4599,815.23,77.8199,836.41,78.3699,831.45,91.4599" style="stroke:#1B1F23;stroke-width:1.0;"/><!--MD5=[b6e65d4ffbe7cfad89be66b39e6f5d6f]
reverse link uml.UMLElement to uml.RelateableElement--><path codeLine="36" d="M809.86,96.8499 C825.03,112.3399 842.49,130.1599 855.35,143.2899 " fill="none" id="uml.UMLElement-backto-uml.RelateableElement" style="stroke:#1B1F23;stroke-width:1.0;"/><polygon fill="none" points="804.7,101.5899,795.7,82.4099,814.7,91.7899,804.7,101.5899" style="stroke:#1B1F23;stroke-width:1.0;"/><!--MD5=[7558cf8d229c4966f89cd79de67530ed]
reverse link uml.UMLElement to uml.NamedElement--><path codeLine="37" d="M718.9,74.9699 C684.98,82.9799 641.93,95.2699 606,112.3199 C588.68,120.5399 570.96,132.7799 557.44,143.0899 " fill="none" id="uml.UMLElement-backto-uml.NamedElement" style="stroke:#1B1F23;stroke-width:1.0;"/><polygon fill="none" points="717.64,68.0699,738.69,70.5299,720.71,81.7299,717.64,68.0699" style="stroke:#1B1F23;stroke-width:1.0;"/><!--MD5=[290c611b4867ab7f20500785a881f794]
reverse link uml.UMLElement to uml.UMLUnit--><path codeLine="38" d="M719.05,77.4199 C657.48,92.6499 557.44,118.1399 472,143.3199 C466,145.0899 459.69,147.0499 453.52,149.0199 " fill="none" id="uml.UMLElement-backto-uml.UMLUnit" style="stroke:#1B1F23;stroke-width:1.0;"/><polygon fill="none" points="717.66,70.5499,738.76,72.5699,721.01,84.1499,717.66,70.5499" style="stroke:#1B1F23;stroke-width:1.0;"/><!--MD5=[ee2241e118ae6ac1a9538c7a907661d4]
reverse link uml.TopLevelElement to uml.Package--><path codeLine="39" d="M1185.13,202.9499 C1178.54,228.7399 1170.16,261.5399 1164.94,281.9899 " fill="none" id="uml.TopLevelElement-backto-uml.Package" style="stroke:#1B1F23;stroke-width:1.0;"/><polygon fill="none" points="1178.4,201.0099,1190.13,183.3699,1191.97,204.4799,1178.4,201.0099" style="stroke:#1B1F23;stroke-width:1.0;"/><!--MD5=[92b9c1bdd3738fd62209fcf969678c72]
reverse link uml.PackageBodyElement to uml.Package--><path codeLine="40" d="M1102.46,193.7999 C1110.74,199.4599 1118.57,205.9599 1125,213.3199 C1142.42,233.2499 1151.77,262.9199 1156.31,282.1899 " fill="none" id="uml.PackageBodyElement-backto-uml.Package" style="stroke:#1B1F23;stroke-width:1.0;"/><polygon fill="none" points="1098.63,199.6699,1085.09,183.3699,1105.84,187.6699,1098.63,199.6699" style="stroke:#1B1F23;stroke-width:1.0;"/><!--MD5=[2f735f5c44204e79f8da7ff45952153a]
reverse link uml.StereotypeElement to uml.Package--><path codeLine="41" d="M797.01,182.8499 C870.44,192.3099 1089.81,214.4899 1103,222.3199 C1126.27,236.1299 1142.72,263.5399 1151.78,282.1499 " fill="none" id="uml.StereotypeElement-backto-uml.Package" style="stroke:#1B1F23;stroke-width:1.0;"/><polygon fill="none" points="795.54,189.6999,776.75,179.8999,797.55,175.8499,795.54,189.6999" style="stroke:#1B1F23;stroke-width:1.0;"/><!--MD5=[f60db5d35547ab2191ce7c18593c02ed]
reverse link uml.RelateableElement to uml.Package--><path codeLine="42" d="M956.21,183.6299 C1019.34,198.6899 1096.78,217.7999 1103,222.3199 C1124.48,237.9299 1141.05,264.1099 1150.66,282.0199 " fill="none" id="uml.RelateableElement-backto-uml.Package" style="stroke:#1B1F23;stroke-width:1.0;"/><polygon fill="none" points="954.59,190.4399,936.75,178.9999,957.83,176.8199,954.59,190.4399" style="stroke:#1B1F23;stroke-width:1.0;"/><!--MD5=[973801ab0e4fc94358486c29f0e4f633]
reverse link uml.StereotypeElement to uml.GenericParameter--><path codeLine="43" d="M689.85,200.9799 C687.94,205.0299 686.26,209.1799 685,213.3199 C678.05,236.1599 677.71,263.8399 678.51,281.9799 " fill="none" id="uml.StereotypeElement-backto-uml.GenericParameter" style="stroke:#1B1F23;stroke-width:1.0;"/><polygon fill="none" points="683.9,197.2799,699.86,183.3399,696.08,204.1899,683.9,197.2799" style="stroke:#1B1F23;stroke-width:1.0;"/><!--MD5=[d9c13df511c0460180c88e150dc75afd]
reverse link uml.NamedElement to uml.GenericParameter--><path codeLine="44" d="M573.5,196.3699 C583.3,204.6399 593.67,213.6499 603,222.3199 C624.19,241.9999 647.17,265.9499 662.46,282.2899 " fill="none" id="uml.NamedElement-backto-uml.GenericParameter" style="stroke:#1B1F23;stroke-width:1.0;"/><polygon fill="none" points="568.73,201.5099,557.81,183.3599,577.67,190.7399,568.73,201.5099" style="stroke:#1B1F23;stroke-width:1.0;"/><!--MD5=[8cfe38e5ba8040c171ee051a8d005eda]
reverse link uml.TopLevelElement to uml::externalReferences.ClassDefRef--><path codeLine="45" d="M1270.55,183.1099 C1441.11,209.6999 1499.14,159.5099 1652,222.3199 C1684.54,235.6899 1714.92,263.4899 1732.97,282.2799 " fill="none" id="uml.TopLevelElement-backto-uml::externalReferences.ClassDefRef" style="stroke:#1B1F23;stroke-width:1.0;"/><polygon fill="none" points="1269.16,189.9699,1250.6,179.7299,1271.49,176.1699,1269.16,189.9699" style="stroke:#1B1F23;stroke-width:1.0;"/><!--MD5=[cc3944b57203cf94f8aebd11666a61f4]
reverse link uml.TopLevelElement to uml.Class--><path codeLine="46" d="M1140.49,193.8599 C1127.49,202.1699 1114.16,211.8299 1103,222.3199 C1084.02,240.1499 1067.25,265.1199 1056.89,282.1799 " fill="none" id="uml.TopLevelElement-backto-uml.Class" style="stroke:#1B1F23;stroke-width:1.0;"/><polygon fill="none" points="1137.04,187.7599,1157.78,183.4099,1144.28,199.7499,1137.04,187.7599" style="stroke:#1B1F23;stroke-width:1.0;"/><!--MD5=[d3a70ac9cd151190a94e7e429a792cc7]
reverse link uml.StereotypeElement to uml.Class--><path codeLine="47" d="M796.69,183.3499 C852.7,193.5399 972.78,211.8799 989,222.3199 C1011.62,236.8699 1028.13,263.8199 1037.39,282.1499 " fill="none" id="uml.StereotypeElement-backto-uml.Class" style="stroke:#1B1F23;stroke-width:1.0;"/><polygon fill="none" points="795.12,190.1699,776.84,179.4699,797.81,176.4299,795.12,190.1699" style="stroke:#1B1F23;stroke-width:1.0;"/><!--MD5=[4f7ea53be680d6ff81d2b14b2b110ba9]
reverse link uml.PackageBodyElement to uml.Class--><path codeLine="48" d="M1040.28,203.3399 C1041.78,229.0599 1043.68,261.6499 1044.87,281.9899 " fill="none" id="uml.PackageBodyElement-backto-uml.Class" style="stroke:#1B1F23;stroke-width:1.0;"/><polygon fill="none" points="1033.29,203.7399,1039.11,183.3699,1047.27,202.9299,1033.29,203.7399" style="stroke:#1B1F23;stroke-width:1.0;"/><!--MD5=[39a9b3b72bd19cbe2f4eb3a2cb420adc]
reverse link uml.RelateableElement to uml.Class--><path codeLine="49" d="M942.69,192.2199 C958.82,200.5499 975.29,210.6199 989,222.3199 C1008.94,239.3399 1025.63,264.7099 1035.7,282.0799 " fill="none" id="uml.RelateableElement-backto-uml.Class" style="stroke:#1B1F23;stroke-width:1.0;"/><polygon fill="none" points="939.41,198.4099,924.43,183.4299,945.49,185.7999,939.41,198.4099" style="stroke:#1B1F23;stroke-width:1.0;"/><!--MD5=[6c621dc226ce9ce334af26d3d6f55a16]
reverse link uml.NamedElement to uml.Class--><path codeLine="50" d="M598.87,177.4099 C610.54,179.5499 622.61,181.6099 634,183.3199 C653.62,186.2599 971.86,212.3299 989,222.3199 C1012.38,235.9399 1028.8,263.3999 1037.83,282.0699 " fill="none" id="uml.NamedElement-backto-uml.Class" style="stroke:#1B1F23;stroke-width:1.0;"/><polygon fill="none" points="597.52,184.2799,579.17,173.6799,600.13,170.5199,597.52,184.2799" style="stroke:#1B1F23;stroke-width:1.0;"/><!--MD5=[ae844977740b85f1bd5362518ee18eec]
reverse link uml.CompartmentElement to uml.Attribute--><path codeLine="51" d="M333.5,193.0599 C347.92,201.3899 362.69,211.2699 375,222.3199 C394.51,239.8299 411.29,265.0999 421.49,282.3099 " fill="none" id="uml.CompartmentElement-backto-uml.Attribute" style="stroke:#1B1F23;stroke-width:1.0;"/><polygon fill="none" points="329.86,199.0499,315.62,183.3499,336.54,186.7499,329.86,199.0499" style="stroke:#1B1F23;stroke-width:1.0;"/><!--MD5=[ba4c0df47cbc1123ace32dbfc85a8cff]
reverse link uml.StereotypeElement to uml.Attribute--><path codeLine="52" d="M631.6,179.4499 C577.39,190.5499 512.32,206.3999 489,222.3199 C466.93,237.3899 450.39,263.9499 440.96,282.0799 " fill="none" id="uml.StereotypeElement-backto-uml.Attribute" style="stroke:#1B1F23;stroke-width:1.0;"/><polygon fill="none" points="630.37,172.5599,651.36,175.5199,633.11,186.2899,630.37,172.5599" style="stroke:#1B1F23;stroke-width:1.0;"/><!--MD5=[91adc5ff9cbdcce58436f0dc91a59110]
reverse link uml.NamedElement to uml.Attribute--><path codeLine="53" d="M475.38,194.8799 C468.49,200.3099 462.11,206.4599 457,213.3199 C441.82,233.6999 435.85,262.9799 433.5,282.0699 " fill="none" id="uml.NamedElement-backto-uml.Attribute" style="stroke:#1B1F23;stroke-width:1.0;"/><polygon fill="none" points="471.55,189.0199,492.02,183.5199,479.45,200.5799,471.55,189.0199" style="stroke:#1B1F23;stroke-width:1.0;"/><!--MD5=[c64105d118dc6f0f4e0df97d44e6ddb5]
reverse link uml.StereotypeElement to uml.Parameter--><path codeLine="54" d="M715.62,203.7899 C717.1,207.6699 719.16,211.2899 722,214.3199 C732.9,225.9699 743.7,213.5099 757,222.3199 C779.42,237.1699 795.98,264.0499 805.31,282.2899 " fill="none" id="uml.StereotypeElement-backto-uml.Parameter" style="stroke:#1B1F23;stroke-width:1.0;"/><polygon fill="none" points="708.65,204.5299,712.24,183.6499,722.45,202.2099,708.65,204.5299" style="stroke:#1B1F23;stroke-width:1.0;"/><!--MD5=[dad0e1fe12916c932edea2f08d1d522e]
reverse link uml.NamedElement to uml.Parameter--><path codeLine="55" d="M598.73,183.7699 C632.84,193.6399 675.48,205.4099 714,214.3199 C732.94,218.6999 740.58,211.9099 757,222.3199 C779.71,236.7099 796.2,263.6999 805.43,282.0899 " fill="none" id="uml.NamedElement-backto-uml.Parameter" style="stroke:#1B1F23;stroke-width:1.0;"/><polygon fill="none" points="596.44,190.3899,579.22,178.0599,600.38,176.9599,596.44,190.3899" style="stroke:#1B1F23;stroke-width:1.0;"/><!--MD5=[d3351dc566d902a6b6da60f7bb08aa40]
reverse link uml.CompartmentElement to uml.Operation--><path codeLine="56" d="M358.54,184.3999 C413.94,197.8899 477.79,214.5799 489,222.3199 C510.99,237.4999 527.55,264.0299 537.01,282.1299 " fill="none" id="uml.CompartmentElement-backto-uml.Operation" style="stroke:#1B1F23;stroke-width:1.0;"/><polygon fill="none" points="356.82,191.1799,339.02,179.6799,360.1,177.5699,356.82,191.1799" style="stroke:#1B1F23;stroke-width:1.0;"/><!--MD5=[36b8bdc4b8a36e04438af5080c236987]
reverse link uml.StereotypeElement to uml.Operation--><path codeLine="57" d="M648.97,192.3899 C633.35,200.7599 617.34,210.8199 604,222.3199 C584.02,239.5399 566.97,264.8699 556.63,282.1699 " fill="none" id="uml.StereotypeElement-backto-uml.Operation" style="stroke:#1B1F23;stroke-width:1.0;"/><polygon fill="none" points="645.93,186.0799,666.95,183.3599,652.22,198.5899,645.93,186.0799" style="stroke:#1B1F23;stroke-width:1.0;"/><!--MD5=[c0dea02d37906f8dea122dc3c9003e47]
reverse link uml.NamedElement to uml.Operation--><path codeLine="58" d="M537.42,203.3399 C539.67,229.0599 542.52,261.6499 544.31,281.9899 " fill="none" id="uml.NamedElement-backto-uml.Operation" style="stroke:#1B1F23;stroke-width:1.0;"/><polygon fill="none" points="530.44,203.8999,535.67,183.3699,544.39,202.6799,530.44,203.8999" style="stroke:#1B1F23;stroke-width:1.0;"/><!--MD5=[e53d3d677c27d2181574941d3de7813c]
reverse link uml.UMLElement to uml.Compartment--><path codeLine="59" d="M720.11,83.5699 C666.75,105.6199 599.91,143.1599 634,183.3199 C668.54,224.0099 825.39,194.5899 871,222.3199 C894.26,236.4599 911.38,263.5099 921.02,281.9799 " fill="none" id="uml.UMLElement-backto-uml.Compartment" style="stroke:#1B1F23;stroke-width:1.0;"/><polygon fill="none" points="717.77,76.9699,738.94,76.1599,722.89,89.9899,717.77,76.9699" style="stroke:#1B1F23;stroke-width:1.0;"/><!--MD5=[dde3cc06a75bfc996dec32ba8213762b]
reverse link uml.StereotypeElement to uml.Compartment--><path codeLine="60" d="M795.76,184.6199 C821.43,193.4899 848.83,205.7599 871,222.3199 C892.53,238.3999 909.84,264.4699 920.01,282.2299 " fill="none" id="uml.StereotypeElement-backto-uml.Compartment" style="stroke:#1B1F23;stroke-width:1.0;"/><polygon fill="none" points="793.49,191.2399,776.58,178.4799,797.76,177.9099,793.49,191.2399" style="stroke:#1B1F23;stroke-width:1.0;"/><!--MD5=[9d39aaab10d0dbd5d68d1ee06af593cc]
reverse link uml.TopLevelElement to uml.Note--><path codeLine="61" d="M1269.57,184.1899 C1294.54,193.1799 1321.47,205.6199 1343,222.3199 C1363.98,238.5899 1380.67,264.6199 1390.43,282.3099 " fill="none" id="uml.TopLevelElement-backto-uml.Note" style="stroke:#1B1F23;stroke-width:1.0;"/><polygon fill="none" points="1267.3,190.8099,1250.54,177.8399,1271.73,177.5299,1267.3,190.8099" style="stroke:#1B1F23;stroke-width:1.0;"/><!--MD5=[54f8791d1309d7085736e37ff69ac64e]
reverse link uml.StereotypeElement to uml.Note--><path codeLine="62" d="M796.86,182.3599 C901.82,191.1199 1318.48,208.6599 1343,222.3199 C1366.79,235.5699 1383.2,263.3999 1392.1,282.2299 " fill="none" id="uml.StereotypeElement-backto-uml.Note" style="stroke:#1B1F23;stroke-width:1.0;"/><polygon fill="none" points="795.85,189.2899,776.7,180.2299,797.32,175.3699,795.85,189.2899" style="stroke:#1B1F23;stroke-width:1.0;"/><!--MD5=[7543d1d518e3cb195c97fe03621704f4]
reverse link uml.PackageBodyElement to uml.Note--><path codeLine="63" d="M1124.23,183.1399 C1185.44,193.0199 1324.35,210.6199 1343,222.3199 C1365.78,236.6099 1382.25,263.6199 1391.46,282.0399 " fill="none" id="uml.PackageBodyElement-backto-uml.Note" style="stroke:#1B1F23;stroke-width:1.0;"/><polygon fill="none" points="1122.9,190.0199,1104.42,179.6499,1125.33,176.2299,1122.9,190.0199" style="stroke:#1B1F23;stroke-width:1.0;"/><!--MD5=[751b1205a70d4109b997880923b08a81]
reverse link uml.UMLElement to uml.RelationshipElement--><path codeLine="64" d="M718.7,69.7499 C612.95,81.7599 382.62,109.4499 190,143.3199 C184,144.3799 177.78,145.5499 171.55,146.7799 " fill="none" id="uml.UMLElement-backto-uml.RelationshipElement" style="stroke:#1B1F23;stroke-width:1.0;"/><polygon fill="none" points="718.07,62.7799,738.73,67.4999,719.64,76.6899,718.07,62.7799" style="stroke:#1B1F23;stroke-width:1.0;"/><!--MD5=[43e6bd47657cf961bb73e6aba2c71a0e]
reverse link uml.RelationshipElement to uml.ConcreteClass--><path codeLine="65" d="M185.28,190.7799 C205.2,199.1599 225.69,209.6299 243,222.3199 C265.49,238.7999 285.08,264.5299 296.95,282.1199 " fill="none" id="uml.RelationshipElement-backto-uml.ConcreteClass" style="stroke:#1B1F23;stroke-width:1.0;"/><polygon fill="none" points="182.52,197.2199,166.48,183.3799,187.65,184.1899,182.52,197.2199" style="stroke:#1B1F23;stroke-width:1.0;"/><!--MD5=[0827cb24c3633cb1e0ce663647c8d8a4]
reverse link uml.RelationshipElement to uml.ClassRef--><path codeLine="66" d="M124.28,200.6499 C140.28,226.7599 161.24,260.9299 174.15,281.9899 " fill="none" id="uml.RelationshipElement-backto-uml.ClassRef" style="stroke:#1B1F23;stroke-width:1.0;"/><polygon fill="none" points="118.17,204.0799,113.68,183.3699,130.1,196.7599,118.17,204.0799" style="stroke:#1B1F23;stroke-width:1.0;"/><!--MD5=[d161fb08f213c6c51818d448dd7ca76a]
reverse link uml.RelationshipElement to uml.PackageRef--><path codeLine="67" d="M93.54,202.9499 C87.89,228.7399 80.71,261.5399 76.23,281.9899 " fill="none" id="uml.RelationshipElement-backto-uml.PackageRef" style="stroke:#1B1F23;stroke-width:1.0;"/><polygon fill="none" points="86.71,201.4099,97.83,183.3699,100.39,204.3999,86.71,201.4099" style="stroke:#1B1F23;stroke-width:1.0;"/><!--MD5=[96b9f3d8202e4bf0f5fde0a9f9f400ad]
reverse link uml.UMLElement to uml.RelationshipInfo--><path codeLine="68" d="M835.25,67.0699 C958.6,75.5999 1254.99,99.2099 1500,143.3199 C1511.25,145.3399 1523.3,148.0499 1534.44,150.7899 " fill="none" id="uml.UMLElement-backto-uml.RelationshipInfo" style="stroke:#1B1F23;stroke-width:1.0;"/><polygon fill="none" points="834.76,74.0499,815.28,65.7199,835.71,60.0799,834.76,74.0499" style="stroke:#1B1F23;stroke-width:1.0;"/><!--MD5=[df81014cbd5283c3ff7bfd52fd7d21c3]
reverse link uml.TopLevelElement to uml.Relationship--><path codeLine="69" d="M1217.54,200.6499 C1233.74,226.7599 1254.94,260.9299 1268.01,281.9899 " fill="none" id="uml.TopLevelElement-backto-uml.Relationship" style="stroke:#1B1F23;stroke-width:1.0;"/><polygon fill="none" points="1211.41,204.0499,1206.82,183.3699,1223.31,196.6699,1211.41,204.0499" style="stroke:#1B1F23;stroke-width:1.0;"/><!--MD5=[ece9dd473762f4a67cf50340d972bd77]
reverse link uml.PackageBodyElement to uml.Relationship--><path codeLine="70" d="M1123.63,186.8299 C1161.58,197.8599 1201.18,211.1299 1217,222.3199 C1239.49,238.2199 1258.09,264.3299 1269.11,282.1499 " fill="none" id="uml.PackageBodyElement-backto-uml.Relationship" style="stroke:#1B1F23;stroke-width:1.0;"/><polygon fill="none" points="1121.71,193.5599,1104.37,181.3799,1125.53,180.0899,1121.71,193.5599" style="stroke:#1B1F23;stroke-width:1.0;"/><!--MD5=[e8af4b7505a10b967f0d8c07f794fe3b]
reverse link uml.StereotypeElement to uml.Relationship--><path codeLine="71" d="M796.68,182.6499 C891.72,192.4599 1178.75,201.6799 1217,222.3199 C1241.86,235.7299 1260.37,263.5199 1270.68,282.2999 " fill="none" id="uml.StereotypeElement-backto-uml.Relationship" style="stroke:#1B1F23;stroke-width:1.0;"/><polygon fill="none" points="795.67,189.5799,776.72,180.0999,797.44,175.6899,795.67,189.5799" style="stroke:#1B1F23;stroke-width:1.0;"/><!--MD5=[35c088a279c288843ce1a51ea847f2fe]
reverse link uml.externalReferences to uml::externalReferences--><path codeLine="72" d="M1631.81,88.7599 C1686.44,114.4399 1764.07,159.3299 1808,222.3199 C1810.5013,225.9074 1812.6753,229.7844 1814.5647,233.8283 C1815.0371,234.8392 1815.4917,235.8606 1815.9291,236.8905 C1816.0385,237.148 1816.1468,237.406 1816.254,237.6645 C1816.3076,237.7938 1816.361,237.9231 1816.4141,238.0526 " fill="none" id="uml.externalReferences-backto-uml::externalReferences" style="stroke:#1B1F23;stroke-width:1.0;"/><ellipse cx="1625.3846" cy="85.8187" fill="#FFFFFF" rx="8" ry="8" style="stroke:#1B1F23;stroke-width:1.0;"/><line style="stroke:#1B1F23;stroke-width:1.0;" x1="1632.6591" x2="1618.11" y1="89.1475" y2="82.4899"/><line style="stroke:#1B1F23;stroke-width:1.0;" x1="1622.0558" x2="1628.7133" y1="93.0932" y2="78.5441"/><text fill="#000000" font-family="Source Code Pro" font-size="13" lengthAdjust="spacingAndGlyphs" textLength="88" x="1775" y="168.0974">«objectdef»</text><!--MD5=[4ae0a8b1eff4ad4d3060011c9220411c]
@startuml need_to_find_id
package uml{
    class uml.Relationship << caseclass >>
    class uml.PackageRef << caseclass >>
    class uml.ClassRef << caseclass >>
    class uml.ConcreteClass << caseclass >>
    abstract class uml.RelationshipElement << trait >>
    class uml.Note << caseclass >>
    class uml.Compartment << caseclass >>
    class uml.Operation << caseclass >>
    class uml.Parameter << caseclass >>
    class uml.Attribute << caseclass >>
    class uml.Class << caseclass >>
    class uml.externalReferences << object >>
    class uml.GenericParameter << caseclass >>
    class uml.Package << caseclass >>
    class uml.UMLUnit << caseclass >>
    abstract class uml.NamedElement << trait >>
    abstract class uml.RelateableElement << trait >>
    abstract class uml.PackageBodyElement << trait >>
    abstract class uml.CompartmentElement << trait >>
    abstract class uml.TopLevelElement << trait >>
    abstract class uml.StereotypeElement << trait >>
    class uml.Stereotype << caseclass >>
    class uml.TaggedValue << caseclass >>
    abstract class uml.UMLElement << trait >>
}
package uml::externalReferences{
    class uml::externalReferences.ClassDefRef << caseclass >>
}
uml.UMLElement <|- - uml.TaggedValue 
uml.UMLElement <|- - uml.Stereotype  
uml.UMLElement <|- - uml.StereotypeElement 
uml.UMLElement <|- - uml.TopLevelElement 
uml.UMLElement <|- - uml.CompartmentElement 
uml.UMLElement <|- - uml.PackageBodyElement 
uml.UMLElement <|- - uml.RelateableElement 
uml.UMLElement <|- - uml.NamedElement 
uml.UMLElement <|- - uml.UMLUnit 
uml.TopLevelElement <|- - uml.Package 
uml.PackageBodyElement <|- - uml.Package 
uml.StereotypeElement <|- - uml.Package 
uml.RelateableElement <|- - uml.Package 
uml.StereotypeElement <|- - uml.GenericParameter 
uml.NamedElement <|- - uml.GenericParameter 
uml.TopLevelElement <|- - uml::externalReferences.ClassDefRef 
uml.TopLevelElement <|- - uml.Class 
uml.StereotypeElement <|- - uml.Class 
uml.PackageBodyElement <|- - uml.Class 
uml.RelateableElement <|- - uml.Class 
uml.NamedElement <|- - uml.Class 
uml.CompartmentElement <|- - uml.Attribute 
uml.StereotypeElement <|- - uml.Attribute 
uml.NamedElement <|- - uml.Attribute 
uml.StereotypeElement <|- - uml.Parameter 
uml.NamedElement <|- - uml.Parameter 
uml.CompartmentElement <|- - uml.Operation 
uml.StereotypeElement <|- - uml.Operation 
uml.NamedElement <|- - uml.Operation 
uml.UMLElement <|- - uml.Compartment 
uml.StereotypeElement <|- - uml.Compartment 
uml.TopLevelElement <|- - uml.Note 
uml.StereotypeElement <|- - uml.Note 
uml.PackageBodyElement <|- - uml.Note 
uml.UMLElement <|- - uml.RelationshipElement 
uml.RelationshipElement <|- - uml.ConcreteClass 
uml.RelationshipElement <|- - uml.ClassRef 
uml.RelationshipElement <|- - uml.PackageRef 
uml.UMLElement <|- - uml.RelationshipInfo  
uml.TopLevelElement <|- - uml.Relationship 
uml.PackageBodyElement <|- - uml.Relationship 
uml.StereotypeElement <|- - uml.Relationship 
uml.externalReferences +- - uml::externalReferences : << objectdef >>

hide circle 
hide members 
skinparam defaultFontName Source Code Pro

skinparam ClassStereotypeFontColor #1b1f23

skinparam class {
    BackgroundColor White
    BorderColor #1b1f23
    ArrowColor #1b1f23
    FontColor #6f42c1
}

skinparam note {
    BackgroundColor White
    BorderColor #1b1f23
    ArrowColor #1b1f23
    FontColor #d73a49
}


skinparam stereotype {
    FontColor #d73a49
}


@enduml

PlantUML version 1.2020.22(Sun Dec 06 10:36:27 CET 2020)
(GPL source distribution)
Java Runtime: Java(TM) SE Runtime Environment
JVM: Java HotSpot(TM) 64-Bit Server VM
Default Encoding: Cp1252
Language: de
Country: DE
--></g></svg>