<?xml version="1.0" encoding="UTF-8" standalone="no"?><svg xmlns="http://www.w3.org/2000/svg" xmlns:xlink="http://www.w3.org/1999/xlink" contentScriptType="application/ecmascript" contentStyleType="text/css" height="441px" preserveAspectRatio="none" style="width:179px;height:441px;" version="1.1" viewBox="0 0 179 441" width="179px" zoomAndPan="magnify"><defs><filter height="300%" id="fulk5kx6j2unw" width="300%" x="-1" y="-1"><feGaussianBlur result="blurOut" stdDeviation="2.0"/><feColorMatrix in="blurOut" result="blurOut2" type="matrix" values="0 0 0 0 0 0 0 0 0 0 0 0 0 0 0 0 0 0 .4 0"/><feOffset dx="4.0" dy="4.0" in="blurOut2" result="blurOut3"/><feBlend in="SourceGraphic" in2="blurOut3" mode="normal"/></filter></defs><g><!--MD5=[db8cdea55f22f4c3b6ac5747c5fce350]
cluster foo--><polygon fill="#FFFFFF" filter="url(#fulk5kx6j2unw)" points="16,6,45,6,52,29.6094,162,29.6094,162,434,16,434,16,6" style="stroke:#000000;stroke-width:1.5;"/><line style="stroke:#000000;stroke-width:1.5;" x1="16" x2="52" y1="29.6094" y2="29.6094"/><text fill="#000000" font-family="sans-serif" font-size="14" font-weight="bold" lengthAdjust="spacingAndGlyphs" textLength="23" x="20" y="22.5332">foo</text><!--MD5=[df8a7b915328af6f0a449b23dad07291]
class foo.FooExpr--><rect codeLine="1" fill="#FEFECE" filter="url(#fulk5kx6j2unw)" height="56.1875" id="foo.FooExpr" style="stroke:#A80036;stroke-width:1.5;" width="78" x="42" y="362"/><ellipse cx="57" cy="382.0938" fill="#A9DCDF" rx="11" ry="11" style="stroke:#A80036;stroke-width:1.0;"/><path d="M59.1875,383.8594 L55.0469,383.8594 L54.625,384.8906 L55.0469,384.8906 Q55.6563,384.8906 55.9219,385.125 Q56.1875,385.3594 56.1875,385.75 Q56.1875,386.125 55.9219,386.3594 Q55.6563,386.5938 55.0469,386.5938 L52.75,386.5938 Q52.1406,386.5938 51.8828,386.3594 Q51.625,386.125 51.625,385.7344 Q51.625,385.3594 51.8984,385.1172 Q52.1719,384.875 52.7969,384.8906 L55.4688,378.2344 L54.3594,378.2344 Q53.75,378.2344 53.4844,378 Q53.2188,377.7656 53.2188,377.375 Q53.2188,377 53.4844,376.7656 Q53.75,376.5313 54.3594,376.5313 L58.0313,376.5313 L61.4219,384.8906 Q62.0156,384.8906 62.2031,385.0313 Q62.5938,385.2969 62.5938,385.75 Q62.5938,386.125 62.3359,386.3594 Q62.0781,386.5938 61.4688,386.5938 L59.1719,386.5938 Q58.5625,386.5938 58.2969,386.3594 Q58.0313,386.125 58.0313,385.7344 Q58.0313,385.3594 58.2969,385.125 Q58.5625,384.8906 59.1719,384.8906 L59.5938,384.8906 L59.1875,383.8594 Z M58.4688,382.1563 L57.1094,378.7813 L55.7344,382.1563 L58.4688,382.1563 Z " fill="#000000"/><text fill="#000000" font-family="sans-serif" font-size="12" font-style="italic" lengthAdjust="spacingAndGlyphs" textLength="34" x="77" y="379.457">«trait»</text><text fill="#000000" font-family="sans-serif" font-size="12" font-style="italic" lengthAdjust="spacingAndGlyphs" textLength="46" x="71" y="394.5508">FooExpr</text><line style="stroke:#A80036;stroke-width:1.5;" x1="43" x2="119" y1="402.1875" y2="402.1875"/><line style="stroke:#A80036;stroke-width:1.5;" x1="43" x2="119" y1="410.1875" y2="410.1875"/><!--MD5=[86b97e550192ba129cf6144b92fc231a]
class foo.Foo--><rect codeLine="2" fill="#FEFECE" filter="url(#fulk5kx6j2unw)" height="93.6953" id="foo.Foo" style="stroke:#A80036;stroke-width:1.5;" width="96" x="32" y="42"/><ellipse cx="47" cy="62.0938" fill="#ADD1B2" rx="11" ry="11" style="stroke:#A80036;stroke-width:1.0;"/><path d="M49.7656,57.9688 Q49.9219,57.75 50.1094,57.6406 Q50.2969,57.5313 50.5156,57.5313 Q50.8906,57.5313 51.125,57.7891 Q51.3594,58.0469 51.3594,58.6563 L51.3594,60.1094 Q51.3594,60.7188 51.125,60.9844 Q50.8906,61.25 50.5156,61.25 Q50.1719,61.25 49.9688,61.0469 Q49.7656,60.8594 49.6563,60.3438 Q49.6094,59.9844 49.4219,59.7969 Q49.0938,59.4219 48.4844,59.2031 Q47.875,58.9844 47.25,58.9844 Q46.4844,58.9844 45.8516,59.3125 Q45.2188,59.6406 44.7266,60.3906 Q44.2344,61.1406 44.2344,62.1719 L44.2344,63.2656 Q44.2344,64.5 45.125,65.3203 Q46.0156,66.1406 47.6094,66.1406 Q48.5469,66.1406 49.2031,65.8906 Q49.5938,65.7344 50.0156,65.2969 Q50.2813,65.0313 50.4297,64.9531 Q50.5781,64.875 50.7813,64.875 Q51.1094,64.875 51.3672,65.1328 Q51.625,65.3906 51.625,65.7344 Q51.625,66.0781 51.2813,66.4844 Q50.7813,67.0625 49.9844,67.3906 Q48.9063,67.8438 47.6094,67.8438 Q46.0938,67.8438 44.8906,67.2188 Q43.9063,66.7188 43.2188,65.6484 Q42.5313,64.5781 42.5313,63.2969 L42.5313,62.1406 Q42.5313,60.8125 43.1484,59.6641 Q43.7656,58.5156 44.8594,57.8984 Q45.9531,57.2813 47.1875,57.2813 Q47.9219,57.2813 48.5703,57.4453 Q49.2188,57.6094 49.7656,57.9688 Z " fill="#000000"/><text fill="#000000" font-family="sans-serif" font-size="12" font-style="italic" lengthAdjust="spacingAndGlyphs" textLength="68" x="59" y="59.457">«caseclass»</text><text fill="#000000" font-family="sans-serif" font-size="12" lengthAdjust="spacingAndGlyphs" textLength="21" x="82.5" y="74.5508">Foo</text><line style="stroke:#A80036;stroke-width:1.5;" x1="33" x2="127" y1="82.1875" y2="82.1875"/><text fill="#000000" font-family="sans-serif" font-size="11" lengthAdjust="spacingAndGlyphs" textLength="82" x="38" y="97.6064">«ctor»Foo (i : Int)</text><text fill="#000000" font-family="sans-serif" font-size="11" lengthAdjust="spacingAndGlyphs" textLength="41" x="38" y="129.2783">isSealed</text><line style="stroke:#A80036;stroke-width:1.0;" x1="33" x2="42" y1="110.9414" y2="110.9414"/><text fill="#000000" font-family="sans-serif" font-size="11" lengthAdjust="spacingAndGlyphs" textLength="76" x="42" y="114.9424">&lt;&lt;scalaclass&gt;&gt;</text><line style="stroke:#A80036;stroke-width:1.0;" x1="118" x2="127" y1="110.9414" y2="110.9414"/><!--MD5=[5176e398496490e8da1660b8b9dc2ebb]
class foo.$Foo--><rect codeLine="7" fill="#FEFECE" filter="url(#fulk5kx6j2unw)" height="70.0234" id="foo.$Foo" style="stroke:#A80036;stroke-width:1.5;" width="98" x="32" y="214"/><ellipse cx="56.9" cy="234.0938" fill="#ADD1B2" rx="11" ry="11" style="stroke:#A80036;stroke-width:1.0;"/><path d="M59.6656,229.9688 Q59.8219,229.75 60.0094,229.6406 Q60.1969,229.5313 60.4156,229.5313 Q60.7906,229.5313 61.025,229.7891 Q61.2594,230.0469 61.2594,230.6563 L61.2594,232.1094 Q61.2594,232.7188 61.025,232.9844 Q60.7906,233.25 60.4156,233.25 Q60.0719,233.25 59.8688,233.0469 Q59.6656,232.8594 59.5563,232.3438 Q59.5094,231.9844 59.3219,231.7969 Q58.9938,231.4219 58.3844,231.2031 Q57.775,230.9844 57.15,230.9844 Q56.3844,230.9844 55.7516,231.3125 Q55.1188,231.6406 54.6266,232.3906 Q54.1344,233.1406 54.1344,234.1719 L54.1344,235.2656 Q54.1344,236.5 55.025,237.3203 Q55.9156,238.1406 57.5094,238.1406 Q58.4469,238.1406 59.1031,237.8906 Q59.4938,237.7344 59.9156,237.2969 Q60.1813,237.0313 60.3297,236.9531 Q60.4781,236.875 60.6813,236.875 Q61.0094,236.875 61.2672,237.1328 Q61.525,237.3906 61.525,237.7344 Q61.525,238.0781 61.1813,238.4844 Q60.6813,239.0625 59.8844,239.3906 Q58.8063,239.8438 57.5094,239.8438 Q55.9938,239.8438 54.7906,239.2188 Q53.8063,238.7188 53.1188,237.6484 Q52.4313,236.5781 52.4313,235.2969 L52.4313,234.1406 Q52.4313,232.8125 53.0484,231.6641 Q53.6656,230.5156 54.7594,229.8984 Q55.8531,229.2813 57.0875,229.2813 Q57.8219,229.2813 58.4703,229.4453 Q59.1188,229.6094 59.6656,229.9688 Z " fill="#000000"/><text fill="#000000" font-family="sans-serif" font-size="12" font-style="italic" lengthAdjust="spacingAndGlyphs" textLength="48" x="71.1" y="231.457">«object»</text><text fill="#000000" font-family="sans-serif" font-size="12" lengthAdjust="spacingAndGlyphs" textLength="28" x="81.1" y="246.5508">$Foo</text><line style="stroke:#A80036;stroke-width:1.5;" x1="33" x2="129" y1="254.1875" y2="254.1875"/><line style="stroke:#A80036;stroke-width:1.5;" x1="33" x2="129" y1="262.1875" y2="262.1875"/><text fill="#000000" font-family="sans-serif" font-size="11" lengthAdjust="spacingAndGlyphs" textLength="86" x="38" y="277.6064">apply (i : Int) : Foo</text><!--MD5=[f394f285220f6f1fbba89c902e05040c]
link foo.$Foo to foo.FooExpr--><path codeLine="11" d="M81,284 C81,306.18 81,334.94 81,356.75 " fill="none" id="foo.$Foo-to-foo.FooExpr" style="stroke:#A80036;stroke-width:1.0;"/><polygon fill="#A80036" points="81,361.86,85,352.86,81,356.86,77,352.86,81,361.86" style="stroke:#A80036;stroke-width:1.0;"/><polygon fill="#000000" points="86,328.1758,88.9389,319.1307,83.0611,319.1307,86,328.1758" style="stroke:#000000;stroke-width:1.0;"/><text fill="#000000" font-family="sans-serif" font-size="13" lengthAdjust="spacingAndGlyphs" textLength="17" x="95" y="328.4951">foo</text><text fill="#000000" font-family="sans-serif" font-size="13" lengthAdjust="spacingAndGlyphs" textLength="7" x="73.1906" y="351.0167">1</text><!--MD5=[a6249f14cd9b0514853e2ee29d611c37]
link foo.Foo to foo.$Foo--><path codeLine="12" d="M80.29,136.12 C80.44,159.06 80.61,186.5 80.75,208.46 " fill="none" id="foo.Foo-to-foo.$Foo" style="stroke:#A80036;stroke-width:1.0;stroke-dasharray:7.0,7.0;"/><polygon fill="#A80036" points="80.78,213.63,84.7285,204.6073,80.7514,208.6301,76.7286,204.653,80.78,213.63" style="stroke:#A80036;stroke-width:1.0;"/><text fill="#000000" font-family="sans-serif" font-size="13" lengthAdjust="spacingAndGlyphs" textLength="77" x="81" y="180.4951">«companion»</text><!--MD5=[4e8ae9573366821d579e85b8bada3703]
@startuml need_to_find_id
abstract class foo.FooExpr << trait >>
class foo.Foo << caseclass >>{
    << ctor >>Foo (i : Int)  
- - <<scalaclass>> - -
    isSealed
}
class foo.$Foo << object >>{
    apply (i : Int) : Foo 

}
foo.$Foo - -> "1" foo.FooExpr : foo   > 
foo.Foo ..> foo.$Foo : << companion >>
@enduml

PlantUML version 1.2020.22(Sun Dec 06 10:36:27 CET 2020)
(GPL source distribution)
Java Runtime: Java(TM) SE Runtime Environment
JVM: Java HotSpot(TM) 64-Bit Server VM
Default Encoding: Cp1252
Language: de
Country: DE
--></g></svg>