<?xml version="1.0" encoding="UTF-8" standalone="no"?><svg xmlns="http://www.w3.org/2000/svg" xmlns:xlink="http://www.w3.org/1999/xlink" contentScriptType="application/ecmascript" contentStyleType="text/css" height="417px" preserveAspectRatio="none" style="width:1224px;height:417px;" version="1.1" viewBox="0 0 1224 417" width="1224px" zoomAndPan="magnify"><defs/><g><text fill="#000000" font-family="sans-serif" font-size="14" lengthAdjust="spacingAndGlyphs" textLength="27" x="16.5" y="51.0332">type</text><text fill="#000000" font-family="sans-serif" font-size="14" lengthAdjust="spacingAndGlyphs" textLength="45" x="55" y="51.0332">Source</text><line style="stroke:#A80036;stroke-width:1.0;" x1="50" x2="50" y1="34.5" y2="56.1094"/><line style="stroke:#A80036;stroke-width:1.0;" x1="10" x2="105" y1="56.1094" y2="56.1094"/><text fill="#000000" font-family="sans-serif" font-size="14" lengthAdjust="spacingAndGlyphs" textLength="30" x="15" y="72.6426">stats</text><text fill="#000000" font-family="sans-serif" font-size="14" lengthAdjust="spacingAndGlyphs" textLength="0" x="67" y="72.6426"/><line style="stroke:#A80036;stroke-width:1.0;" x1="50" x2="50" y1="56.1094" y2="77.7188"/><rect fill="none" height="43.2188" rx="5" ry="5" style="stroke:#A80036;stroke-width:1.5;" width="95" x="10" y="34.5"/><text fill="#000000" font-family="sans-serif" font-size="14" lengthAdjust="spacingAndGlyphs" textLength="0" x="159" y="72.5332"/><rect fill="none" height="21.6094" rx="5" ry="5" style="stroke:#A80036;stroke-width:1.5;" width="22" x="142" y="56"/><text fill="#000000" font-family="sans-serif" font-size="14" lengthAdjust="spacingAndGlyphs" textLength="27" x="209.5" y="51.0332">type</text><text fill="#000000" font-family="sans-serif" font-size="14" lengthAdjust="spacingAndGlyphs" textLength="24" x="248" y="51.0332">Pkg</text><line style="stroke:#A80036;stroke-width:1.0;" x1="243" x2="243" y1="34.5" y2="56.1094"/><line style="stroke:#A80036;stroke-width:1.0;" x1="203" x2="277" y1="56.1094" y2="56.1094"/><text fill="#000000" font-family="sans-serif" font-size="14" lengthAdjust="spacingAndGlyphs" textLength="17" x="214.5" y="72.6426">ref</text><text fill="#000000" font-family="sans-serif" font-size="14" lengthAdjust="spacingAndGlyphs" textLength="0" x="260" y="72.6426"/><line style="stroke:#A80036;stroke-width:1.0;" x1="243" x2="243" y1="56.1094" y2="77.7188"/><line style="stroke:#A80036;stroke-width:1.0;" x1="203" x2="277" y1="77.7188" y2="77.7188"/><text fill="#000000" font-family="sans-serif" font-size="14" lengthAdjust="spacingAndGlyphs" textLength="30" x="208" y="94.252">stats</text><text fill="#000000" font-family="sans-serif" font-size="14" lengthAdjust="spacingAndGlyphs" textLength="0" x="260" y="94.252"/><line style="stroke:#A80036;stroke-width:1.0;" x1="243" x2="243" y1="77.7188" y2="99.3281"/><rect fill="none" height="64.8281" rx="5" ry="5" style="stroke:#A80036;stroke-width:1.5;" width="74" x="203" y="34.5"/><text fill="#000000" font-family="sans-serif" font-size="14" lengthAdjust="spacingAndGlyphs" textLength="27" x="322.5" y="47.0332">type</text><text fill="#000000" font-family="sans-serif" font-size="14" lengthAdjust="spacingAndGlyphs" textLength="73" x="363" y="47.0332">Term.Name</text><line style="stroke:#A80036;stroke-width:1.0;" x1="358" x2="358" y1="30.5" y2="52.1094"/><line style="stroke:#A80036;stroke-width:1.0;" x1="314" x2="441" y1="52.1094" y2="52.1094"/><text fill="#000000" font-family="sans-serif" font-size="14" lengthAdjust="spacingAndGlyphs" textLength="34" x="319" y="68.6426">value</text><text fill="#000000" font-family="sans-serif" font-size="14" lengthAdjust="spacingAndGlyphs" textLength="22" x="363" y="68.6426">uml</text><line style="stroke:#A80036;stroke-width:1.0;" x1="358" x2="358" y1="52.1094" y2="73.7188"/><rect fill="none" height="43.2188" rx="5" ry="5" style="stroke:#A80036;stroke-width:1.5;" width="127" x="314" y="30.5"/><text fill="#000000" font-family="sans-serif" font-size="14" lengthAdjust="spacingAndGlyphs" textLength="0" x="382.5" y="108.5332"/><rect fill="none" height="21.6094" rx="5" ry="5" style="stroke:#A80036;stroke-width:1.5;" width="22" x="365.5" y="92"/><text fill="#000000" font-family="sans-serif" font-size="14" lengthAdjust="spacingAndGlyphs" textLength="27" x="495" y="54.5332">type</text><text fill="#000000" font-family="sans-serif" font-size="14" lengthAdjust="spacingAndGlyphs" textLength="63" x="544" y="54.5332">Defn.Trait</text><line style="stroke:#A80036;stroke-width:1.0;" x1="539" x2="539" y1="38" y2="59.6094"/><line style="stroke:#A80036;stroke-width:1.0;" x1="478" x2="612" y1="59.6094" y2="59.6094"/><text fill="#000000" font-family="sans-serif" font-size="14" lengthAdjust="spacingAndGlyphs" textLength="34" x="491.5" y="76.1426">mods</text><text fill="#000000" font-family="sans-serif" font-size="14" lengthAdjust="spacingAndGlyphs" textLength="0" x="556" y="76.1426"/><line style="stroke:#A80036;stroke-width:1.0;" x1="539" x2="539" y1="59.6094" y2="81.2188"/><line style="stroke:#A80036;stroke-width:1.0;" x1="478" x2="612" y1="81.2188" y2="81.2188"/><text fill="#000000" font-family="sans-serif" font-size="14" lengthAdjust="spacingAndGlyphs" textLength="35" x="491" y="97.752">name</text><text fill="#000000" font-family="sans-serif" font-size="14" lengthAdjust="spacingAndGlyphs" textLength="0" x="556" y="97.752"/><line style="stroke:#A80036;stroke-width:1.0;" x1="539" x2="539" y1="81.2188" y2="102.8281"/><line style="stroke:#A80036;stroke-width:1.0;" x1="478" x2="612" y1="102.8281" y2="102.8281"/><text fill="#000000" font-family="sans-serif" font-size="14" lengthAdjust="spacingAndGlyphs" textLength="51" x="483" y="119.3613">tparams</text><text fill="#000000" font-family="sans-serif" font-size="14" lengthAdjust="spacingAndGlyphs" textLength="0" x="556" y="119.3613"/><line style="stroke:#A80036;stroke-width:1.0;" x1="539" x2="539" y1="102.8281" y2="124.4375"/><line style="stroke:#A80036;stroke-width:1.0;" x1="478" x2="612" y1="124.4375" y2="124.4375"/><text fill="#000000" font-family="sans-serif" font-size="14" lengthAdjust="spacingAndGlyphs" textLength="24" x="496.5" y="140.9707">ctor</text><text fill="#000000" font-family="sans-serif" font-size="14" lengthAdjust="spacingAndGlyphs" textLength="0" x="556" y="140.9707"/><line style="stroke:#A80036;stroke-width:1.0;" x1="539" x2="539" y1="124.4375" y2="146.0469"/><line style="stroke:#A80036;stroke-width:1.0;" x1="478" x2="612" y1="146.0469" y2="146.0469"/><text fill="#000000" font-family="sans-serif" font-size="14" lengthAdjust="spacingAndGlyphs" textLength="34" x="491.5" y="162.5801">templ</text><text fill="#000000" font-family="sans-serif" font-size="14" lengthAdjust="spacingAndGlyphs" textLength="0" x="556" y="162.5801"/><line style="stroke:#A80036;stroke-width:1.0;" x1="539" x2="539" y1="146.0469" y2="167.6563"/><rect fill="none" height="129.6563" rx="5" ry="5" style="stroke:#A80036;stroke-width:1.5;" width="134" x="478" y="38"/><rect fill="none" height="15" rx="5" ry="5" style="stroke:#A80036;stroke-width:1.5;" width="30" x="713.5" y="10"/><text fill="#000000" font-family="sans-serif" font-size="14" lengthAdjust="spacingAndGlyphs" textLength="27" x="671" y="61.0332">type</text><text fill="#000000" font-family="sans-serif" font-size="14" lengthAdjust="spacingAndGlyphs" textLength="72" x="711.5" y="61.0332">Type.Name</text><line style="stroke:#A80036;stroke-width:1.0;" x1="706.5" x2="706.5" y1="44.5" y2="66.1094"/><line style="stroke:#A80036;stroke-width:1.0;" x1="662.5" x2="788.5" y1="66.1094" y2="66.1094"/><text fill="#000000" font-family="sans-serif" font-size="14" lengthAdjust="spacingAndGlyphs" textLength="34" x="667.5" y="82.6426">value</text><text fill="#000000" font-family="sans-serif" font-size="14" lengthAdjust="spacingAndGlyphs" textLength="61" x="711.5" y="82.6426">UMLNode</text><line style="stroke:#A80036;stroke-width:1.0;" x1="706.5" x2="706.5" y1="66.1094" y2="87.7188"/><rect fill="none" height="43.2188" rx="5" ry="5" style="stroke:#A80036;stroke-width:1.5;" width="126" x="662.5" y="44.5"/><rect fill="none" height="15" rx="5" ry="5" style="stroke:#A80036;stroke-width:1.5;" width="30" x="713.5" y="106"/><text fill="#000000" font-family="sans-serif" font-size="14" lengthAdjust="spacingAndGlyphs" textLength="27" x="667.5" y="156.5332">type</text><text fill="#000000" font-family="sans-serif" font-size="14" lengthAdjust="spacingAndGlyphs" textLength="79" x="718" y="156.5332">Ctor.Primary</text><line style="stroke:#A80036;stroke-width:1.0;" x1="713" x2="713" y1="140" y2="161.6094"/><line style="stroke:#A80036;stroke-width:1.0;" x1="649" x2="802" y1="161.6094" y2="161.6094"/><text fill="#000000" font-family="sans-serif" font-size="14" lengthAdjust="spacingAndGlyphs" textLength="34" x="664" y="178.1426">mods</text><text fill="#000000" font-family="sans-serif" font-size="14" lengthAdjust="spacingAndGlyphs" textLength="0" x="730" y="178.1426"/><line style="stroke:#A80036;stroke-width:1.0;" x1="713" x2="713" y1="161.6094" y2="183.2188"/><line style="stroke:#A80036;stroke-width:1.0;" x1="649" x2="802" y1="183.2188" y2="183.2188"/><text fill="#000000" font-family="sans-serif" font-size="14" lengthAdjust="spacingAndGlyphs" textLength="35" x="663.5" y="199.752">name</text><text fill="#000000" font-family="sans-serif" font-size="14" lengthAdjust="spacingAndGlyphs" textLength="0" x="730" y="199.752"/><line style="stroke:#A80036;stroke-width:1.0;" x1="713" x2="713" y1="183.2188" y2="204.8281"/><line style="stroke:#A80036;stroke-width:1.0;" x1="649" x2="802" y1="204.8281" y2="204.8281"/><text fill="#000000" font-family="sans-serif" font-size="14" lengthAdjust="spacingAndGlyphs" textLength="54" x="654" y="221.3613">paramss</text><text fill="#000000" font-family="sans-serif" font-size="14" lengthAdjust="spacingAndGlyphs" textLength="0" x="730" y="221.3613"/><line style="stroke:#A80036;stroke-width:1.0;" x1="713" x2="713" y1="204.8281" y2="226.4375"/><rect fill="none" height="86.4375" rx="5" ry="5" style="stroke:#A80036;stroke-width:1.5;" width="153" x="649" y="140"/><rect fill="none" height="15" rx="5" ry="5" style="stroke:#A80036;stroke-width:1.5;" width="30" x="911" y="131"/><text fill="#000000" font-family="sans-serif" font-size="14" lengthAdjust="spacingAndGlyphs" textLength="27" x="847.5" y="182.0332">type</text><text fill="#000000" font-family="sans-serif" font-size="14" lengthAdjust="spacingAndGlyphs" textLength="114" x="888" y="182.0332">Name.Anonymous</text><line style="stroke:#A80036;stroke-width:1.0;" x1="883" x2="883" y1="165.5" y2="187.1094"/><line style="stroke:#A80036;stroke-width:1.0;" x1="839" x2="1007" y1="187.1094" y2="187.1094"/><text fill="#000000" font-family="sans-serif" font-size="14" lengthAdjust="spacingAndGlyphs" textLength="34" x="844" y="203.6426">value</text><text fill="#000000" font-family="sans-serif" font-size="14" lengthAdjust="spacingAndGlyphs" textLength="0" x="892" y="203.6426"/><line style="stroke:#A80036;stroke-width:1.0;" x1="883" x2="883" y1="187.1094" y2="208.7188"/><rect fill="none" height="43.2188" rx="5" ry="5" style="stroke:#A80036;stroke-width:1.5;" width="168" x="839" y="165.5"/><rect fill="none" height="15" rx="5" ry="5" style="stroke:#A80036;stroke-width:1.5;" width="30" x="911" y="227"/><text fill="#000000" font-family="sans-serif" font-size="14" lengthAdjust="spacingAndGlyphs" textLength="27" x="677.5" y="266.5332">type</text><text fill="#000000" font-family="sans-serif" font-size="14" lengthAdjust="spacingAndGlyphs" textLength="59" x="716.5" y="266.5332">Template</text><line style="stroke:#A80036;stroke-width:1.0;" x1="711.5" x2="711.5" y1="250" y2="271.6094"/><line style="stroke:#A80036;stroke-width:1.0;" x1="670.5" x2="780.5" y1="271.6094" y2="271.6094"/><text fill="#000000" font-family="sans-serif" font-size="14" lengthAdjust="spacingAndGlyphs" textLength="31" x="675.5" y="288.1426">early</text><text fill="#000000" font-family="sans-serif" font-size="14" lengthAdjust="spacingAndGlyphs" textLength="0" x="728.5" y="288.1426"/><line style="stroke:#A80036;stroke-width:1.0;" x1="711.5" x2="711.5" y1="271.6094" y2="293.2188"/><line style="stroke:#A80036;stroke-width:1.0;" x1="670.5" x2="780.5" y1="293.2188" y2="293.2188"/><text fill="#000000" font-family="sans-serif" font-size="14" lengthAdjust="spacingAndGlyphs" textLength="25" x="678.5" y="309.752">inits</text><text fill="#000000" font-family="sans-serif" font-size="14" lengthAdjust="spacingAndGlyphs" textLength="0" x="728.5" y="309.752"/><line style="stroke:#A80036;stroke-width:1.0;" x1="711.5" x2="711.5" y1="293.2188" y2="314.8281"/><line style="stroke:#A80036;stroke-width:1.0;" x1="670.5" x2="780.5" y1="314.8281" y2="314.8281"/><text fill="#000000" font-family="sans-serif" font-size="14" lengthAdjust="spacingAndGlyphs" textLength="22" x="680" y="331.3613">self</text><text fill="#000000" font-family="sans-serif" font-size="14" lengthAdjust="spacingAndGlyphs" textLength="0" x="728.5" y="331.3613"/><line style="stroke:#A80036;stroke-width:1.0;" x1="711.5" x2="711.5" y1="314.8281" y2="336.4375"/><line style="stroke:#A80036;stroke-width:1.0;" x1="670.5" x2="780.5" y1="336.4375" y2="336.4375"/><text fill="#000000" font-family="sans-serif" font-size="14" lengthAdjust="spacingAndGlyphs" textLength="30" x="676" y="352.9707">stats</text><text fill="#000000" font-family="sans-serif" font-size="14" lengthAdjust="spacingAndGlyphs" textLength="0" x="728.5" y="352.9707"/><line style="stroke:#A80036;stroke-width:1.0;" x1="711.5" x2="711.5" y1="336.4375" y2="358.0469"/><rect fill="none" height="108.0469" rx="5" ry="5" style="stroke:#A80036;stroke-width:1.5;" width="110" x="670.5" y="250"/><rect fill="none" height="15" rx="5" ry="5" style="stroke:#A80036;stroke-width:1.5;" width="30" x="911" y="261"/><rect fill="none" height="15" rx="5" ry="5" style="stroke:#A80036;stroke-width:1.5;" width="30" x="911" y="295"/><text fill="#000000" font-family="sans-serif" font-size="14" lengthAdjust="spacingAndGlyphs" textLength="27" x="892.5" y="346.0332">type</text><text fill="#000000" font-family="sans-serif" font-size="14" lengthAdjust="spacingAndGlyphs" textLength="24" x="933.5" y="346.0332">Self</text><line style="stroke:#A80036;stroke-width:1.0;" x1="928.5" x2="928.5" y1="329.5" y2="351.1094"/><line style="stroke:#A80036;stroke-width:1.0;" x1="883.5" x2="962.5" y1="351.1094" y2="351.1094"/><text fill="#000000" font-family="sans-serif" font-size="14" lengthAdjust="spacingAndGlyphs" textLength="35" x="888.5" y="367.6426">name</text><text fill="#000000" font-family="sans-serif" font-size="14" lengthAdjust="spacingAndGlyphs" textLength="0" x="945.5" y="367.6426"/><line style="stroke:#A80036;stroke-width:1.0;" x1="928.5" x2="928.5" y1="351.1094" y2="372.7188"/><rect fill="none" height="43.2188" rx="5" ry="5" style="stroke:#A80036;stroke-width:1.5;" width="79" x="883.5" y="329.5"/><text fill="#000000" font-family="sans-serif" font-size="14" lengthAdjust="spacingAndGlyphs" textLength="27" x="1052.5" y="357.0332">type</text><text fill="#000000" font-family="sans-serif" font-size="14" lengthAdjust="spacingAndGlyphs" textLength="114" x="1093" y="357.0332">Name.Anonymous</text><line style="stroke:#A80036;stroke-width:1.0;" x1="1088" x2="1088" y1="340.5" y2="362.1094"/><line style="stroke:#A80036;stroke-width:1.0;" x1="1044" x2="1212" y1="362.1094" y2="362.1094"/><text fill="#000000" font-family="sans-serif" font-size="14" lengthAdjust="spacingAndGlyphs" textLength="34" x="1049" y="378.6426">value</text><text fill="#000000" font-family="sans-serif" font-size="14" lengthAdjust="spacingAndGlyphs" textLength="0" x="1097" y="378.6426"/><line style="stroke:#A80036;stroke-width:1.0;" x1="1088" x2="1088" y1="362.1094" y2="383.7188"/><rect fill="none" height="43.2188" rx="5" ry="5" style="stroke:#A80036;stroke-width:1.5;" width="168" x="1044" y="340.5"/><rect fill="none" height="15" rx="5" ry="5" style="stroke:#A80036;stroke-width:1.5;" width="30" x="911" y="391"/><path d="M265,66 L278,66 C287.3139,66 297.0726,65.385 306.6805,64.4128 " fill="none" style="stroke:#A80036;stroke-width:1.0;stroke-dasharray:3.0,3.0;"/><path d="M307.021,67.4774 L308.9789,64.1573 L306.3399,61.3481 L314.3421,63.5614 L307.021,67.4774 " fill="#A80036" style="stroke:#A80036;stroke-width:1.0;"/><ellipse cx="265" cy="66" fill="#A80036" rx="3" ry="3" style="stroke:#A80036;stroke-width:1.0;"/><path d="M600,70 L613,70 C635.3154,70 629.3705,45.614 649,35 C666.9262,25.307 690.0893,21.1348 706.1083,19.3426 " fill="none" style="stroke:#A80036;stroke-width:1.0;stroke-dasharray:3.0,3.0;"/><path d="M706.4031,22.4066 L708.4064,19.1215 L705.8136,16.2785 L713.7685,18.6057 L706.4031,22.4066 " fill="#A80036" style="stroke:#A80036;stroke-width:1.0;"/><ellipse cx="600" cy="70" fill="#A80036" rx="3" ry="3" style="stroke:#A80036;stroke-width:1.0;"/><path d="M600,92 L613,92 C626.8109,92 641.3373,90.1009 655.1838,87.3292 " fill="none" style="stroke:#A80036;stroke-width:1.0;stroke-dasharray:3.0,3.0;"/><path d="M655.8331,90.3747 L657.4679,86.8423 L654.5346,84.2837 L662.7975,85.7061 L655.8331,90.3747 " fill="#A80036" style="stroke:#A80036;stroke-width:1.0;"/><ellipse cx="600" cy="92" fill="#A80036" rx="3" ry="3" style="stroke:#A80036;stroke-width:1.0;"/><path d="M600,114 L613,114 C645.7593,114 683.9085,114 706.1648,114 " fill="none" style="stroke:#A80036;stroke-width:1.0;stroke-dasharray:3.0,3.0;"/><path d="M706.1648,117.083 L708.4771,114 L706.1648,110.917 L713.8723,114 L706.1648,117.083 " fill="#A80036" style="stroke:#A80036;stroke-width:1.0;"/><ellipse cx="600" cy="114" fill="#A80036" rx="3" ry="3" style="stroke:#A80036;stroke-width:1.0;"/><path d="M790,172 L803,172 C820.3333,172 822.4592,162.1812 839,157 C860.769,150.1812 886.5258,145.0578 903.6177,142.0544 " fill="none" style="stroke:#A80036;stroke-width:1.0;stroke-dasharray:3.0,3.0;"/><path d="M904.1386,145.1101 L905.9095,141.6638 L903.0968,138.9988 L911.2568,140.7522 L904.1386,145.1101 " fill="#A80036" style="stroke:#A80036;stroke-width:1.0;"/><ellipse cx="790" cy="172" fill="#A80036" rx="3" ry="3" style="stroke:#A80036;stroke-width:1.0;"/><path d="M790,194 L803,194 C812.2651,194 821.9273,193.7877 831.5674,193.4371 " fill="none" style="stroke:#A80036;stroke-width:1.0;stroke-dasharray:3.0,3.0;"/><path d="M831.6912,196.5244 L833.8829,193.3442 L831.4436,190.3497 L839.2858,193.1276 L831.6912,196.5244 " fill="#A80036" style="stroke:#A80036;stroke-width:1.0;"/><ellipse cx="790" cy="194" fill="#A80036" rx="3" ry="3" style="stroke:#A80036;stroke-width:1.0;"/><path d="M790,215 L803,215 C822.2409,215 875.0077,225.2135 903.5584,231.043 " fill="none" style="stroke:#A80036;stroke-width:1.0;stroke-dasharray:3.0,3.0;"/><path d="M902.9247,234.1196 L905.8658,231.5183 L904.1921,227.9665 L911.2499,232.6272 L902.9247,234.1196 " fill="#A80036" style="stroke:#A80036;stroke-width:1.0;"/><ellipse cx="790" cy="215" fill="#A80036" rx="3" ry="3" style="stroke:#A80036;stroke-width:1.0;"/><path d="M600,135 L613,135 C622.6933,135 632.5046,136.5377 642.0813,139.0627 " fill="none" style="stroke:#A80036;stroke-width:1.0;stroke-dasharray:3.0,3.0;"/><path d="M641.2356,141.9714 L644.2628,139.697 L642.927,136.154 L649.353,141.1769 L641.2356,141.9714 " fill="#A80036" style="stroke:#A80036;stroke-width:1.0;"/><ellipse cx="600" cy="135" fill="#A80036" rx="3" ry="3" style="stroke:#A80036;stroke-width:1.0;"/><path d="M769,282 L782,282 C825.734,282 876.801,275.6775 903.7031,271.8509 " fill="none" style="stroke:#A80036;stroke-width:1.0;stroke-dasharray:3.0,3.0;"/><path d="M904.1422,274.8662 L905.9646,271.5216 L903.2641,268.8356 L911.2414,270.7532 L904.1422,274.8662 " fill="#A80036" style="stroke:#A80036;stroke-width:1.0;"/><ellipse cx="769" cy="282" fill="#A80036" rx="3" ry="3" style="stroke:#A80036;stroke-width:1.0;"/><path d="M769,303 L782,303 C825.548,303 876.6884,303 903.652,303 " fill="none" style="stroke:#A80036;stroke-width:1.0;stroke-dasharray:3.0,3.0;"/><path d="M903.652,306.0227 L905.919,303 L903.652,299.9773 L911.2087,303 L903.652,306.0227 " fill="#A80036" style="stroke:#A80036;stroke-width:1.0;"/><ellipse cx="769" cy="303" fill="#A80036" rx="3" ry="3" style="stroke:#A80036;stroke-width:1.0;"/><path d="M951.5,362 L964.5,362 C987.8646,362 1013.1131,362 1036.5999,362 " fill="none" style="stroke:#A80036;stroke-width:1.0;stroke-dasharray:3.0,3.0;"/><path d="M1036.5999,365.0236 L1038.8676,362 L1036.5999,358.9764 L1044.159,362 L1036.5999,365.0236 " fill="#A80036" style="stroke:#A80036;stroke-width:1.0;"/><ellipse cx="951.5" cy="362" fill="#A80036" rx="3" ry="3" style="stroke:#A80036;stroke-width:1.0;"/><path d="M769,325 L782,325 C813.8579,325 849.111,331.5433 876.3353,338.0649 " fill="none" style="stroke:#A80036;stroke-width:1.0;stroke-dasharray:3.0,3.0;"/><path d="M875.6019,341.0474 L878.5722,338.6149 L877.0686,335.0824 L883.7915,339.8982 L875.6019,341.0474 " fill="#A80036" style="stroke:#A80036;stroke-width:1.0;"/><ellipse cx="769" cy="325" fill="#A80036" rx="3" ry="3" style="stroke:#A80036;stroke-width:1.0;"/><path d="M769,347 L782,347 C811.728,347 811.3462,371.0904 839,382 C860.2877,390.3981 886.3364,394.8541 903.6201,397.0657 " fill="none" style="stroke:#A80036;stroke-width:1.0;stroke-dasharray:3.0,3.0;"/><path d="M903.2549,400.1543 L905.9365,397.3396 L903.9852,393.9772 L911.3414,397.9786 L903.2549,400.1543 " fill="#A80036" style="stroke:#A80036;stroke-width:1.0;"/><ellipse cx="769" cy="347" fill="#A80036" rx="3" ry="3" style="stroke:#A80036;stroke-width:1.0;"/><path d="M600,157 L613,157 C651.1809,157 626.4128,204.2169 649,235 C653.8431,241.6004 659.3952,248.0538 665.246,254.2004 " fill="none" style="stroke:#A80036;stroke-width:1.0;stroke-dasharray:3.0,3.0;"/><path d="M663.0244,256.3785 L666.8796,255.8666 L667.4676,252.0222 L670.6914,259.7544 L663.0244,256.3785 " fill="#A80036" style="stroke:#A80036;stroke-width:1.0;"/><ellipse cx="600" cy="157" fill="#A80036" rx="3" ry="3" style="stroke:#A80036;stroke-width:1.0;"/><path d="M377.2431,103 L390.2431,103 C407.3436,103 439.7438,103 470.4529,103 " fill="none" style="stroke:#A80036;stroke-width:1.0;stroke-dasharray:3.0,3.0;"/><path d="M470.4529,106.1043 L472.7811,103 L470.4529,99.8957 L478.2136,103 L470.4529,106.1043 " fill="#A80036" style="stroke:#A80036;stroke-width:1.0;"/><ellipse cx="377.2431" cy="103" fill="#A80036" rx="3" ry="3" style="stroke:#A80036;stroke-width:1.0;"/><path d="M265,89 L278,89 C306.2245,89 338.5334,94.6478 358.3521,98.769 " fill="none" style="stroke:#A80036;stroke-width:1.0;stroke-dasharray:3.0,3.0;"/><path d="M357.713,101.7438 L360.5833,99.2483 L358.9912,95.7941 L365.7893,100.3667 L357.713,101.7438 " fill="#A80036" style="stroke:#A80036;stroke-width:1.0;"/><ellipse cx="265" cy="89" fill="#A80036" rx="3" ry="3" style="stroke:#A80036;stroke-width:1.0;"/><path d="M153.6784,67 L166.6784,67 C174.4356,67 185.0049,67 195.685,67 " fill="none" style="stroke:#A80036;stroke-width:1.0;stroke-dasharray:3.0,3.0;"/><path d="M195.685,70.1031 L198.0123,67 L195.685,63.8969 L203.4427,67 L195.685,70.1031 " fill="#A80036" style="stroke:#A80036;stroke-width:1.0;"/><ellipse cx="153.6784" cy="67" fill="#A80036" rx="3" ry="3" style="stroke:#A80036;stroke-width:1.0;"/><path d="M93,67 L106,67 C115.374,67 125.7885,67 134.4714,67 " fill="none" style="stroke:#A80036;stroke-width:1.0;stroke-dasharray:3.0,3.0;"/><path d="M134.4714,70.0815 L136.7825,67 L134.4714,63.9185 L142.1751,67 L134.4714,70.0815 " fill="#A80036" style="stroke:#A80036;stroke-width:1.0;"/><ellipse cx="93" cy="67" fill="#A80036" rx="3" ry="3" style="stroke:#A80036;stroke-width:1.0;"/><!--MD5=[d41d8cd98f00b204e9800998ecf8427e]
--></g></svg>