<?xml version="1.0" encoding="UTF-8" standalone="no"?><svg xmlns="http://www.w3.org/2000/svg" xmlns:xlink="http://www.w3.org/1999/xlink" contentScriptType="application/ecmascript" contentStyleType="text/css" height="268px" preserveAspectRatio="none" style="width:308px;height:268px;" version="1.1" viewBox="0 0 308 268" width="308px" zoomAndPan="magnify"><defs><filter height="300%" id="f1cpttl667w56g" width="300%" x="-1" y="-1"><feGaussianBlur result="blurOut" stdDeviation="2.0"/><feColorMatrix in="blurOut" result="blurOut2" type="matrix" values="0 0 0 0 0 0 0 0 0 0 0 0 0 0 0 0 0 0 .4 0"/><feOffset dx="4.0" dy="4.0" in="blurOut2" result="blurOut3"/><feBlend in="SourceGraphic" in2="blurOut3" mode="normal"/></filter></defs><g><!--MD5=[4591dc0fac4e74bd5d3d0bdec54f2370]
class Defines--><rect codeLine="1" fill="#FFFFFF" filter="url(#f1cpttl667w56g)" height="25.0938" id="Defines" style="stroke:#000000;stroke-width:1.5;" width="48" x="124.5" y="126"/><text fill="#000000" font-family="sans-serif" font-size="12" font-style="italic" lengthAdjust="spacing" textLength="42" x="127.5" y="143.457">Defines</text><!--MD5=[1849b6e819dc840c4b06fd7e202261e5]
class ValDef--><rect fill="#FFFFFF" filter="url(#f1cpttl667w56g)" height="25.0938" id="ValDef" style="stroke:#000000;stroke-width:1.5;" width="42" x="23.5" y="126"/><text fill="#000000" font-family="sans-serif" font-size="12" lengthAdjust="spacing" textLength="36" x="26.5" y="143.457">ValDef</text><!--MD5=[fa45be6a0961a492acf02049c26151f9]
class DefDef--><rect fill="#FFFFFF" filter="url(#f1cpttl667w56g)" height="25.0938" id="DefDef" style="stroke:#000000;stroke-width:1.5;" width="44" x="168.5" y="7"/><text fill="#000000" font-family="sans-serif" font-size="12" lengthAdjust="spacing" textLength="38" x="171.5" y="24.457">DefDef</text><!--MD5=[1332f08998a98f64b8acb1b9ce20bccd]
class VarDef--><rect fill="#FFFFFF" filter="url(#f1cpttl667w56g)" height="25.0938" id="VarDef" style="stroke:#000000;stroke-width:1.5;" width="43" x="7" y="229"/><text fill="#000000" font-family="sans-serif" font-size="12" lengthAdjust="spacing" textLength="37" x="10" y="246.457">VarDef</text><!--MD5=[7d7766d365bf13da6574abd462351d3f]
class TypeDef--><rect fill="#FFFFFF" filter="url(#f1cpttl667w56g)" height="25.0938" id="TypeDef" style="stroke:#000000;stroke-width:1.5;" width="51" x="85" y="229"/><text fill="#000000" font-family="sans-serif" font-size="12" lengthAdjust="spacing" textLength="45" x="88" y="246.457">TypeDef</text><!--MD5=[41e1c6cf192918703501b24b2053926c]
class Class--><rect fill="#FFFFFF" filter="url(#f1cpttl667w56g)" height="25.0938" id="Class" style="stroke:#000000;stroke-width:1.5;" width="39" x="171" y="229"/><text fill="#000000" font-family="sans-serif" font-size="12" lengthAdjust="spacing" textLength="33" x="174" y="246.457">Class</text><!--MD5=[4298d0dcfa55ecd56071adba7add2166]
class Enum--><rect fill="#FFFFFF" filter="url(#f1cpttl667w56g)" height="25.0938" id="Enum" style="stroke:#000000;stroke-width:1.5;" width="39" x="255" y="229"/><text fill="#000000" font-family="sans-serif" font-size="12" lengthAdjust="spacing" textLength="33" x="258" y="246.457">Enum</text><!--MD5=[aa7f586532e18719e6cefa70fc650583]
class Object--><rect fill="#FFFFFF" filter="url(#f1cpttl667w56g)" height="25.0938" id="Object" style="stroke:#000000;stroke-width:1.5;" width="41" x="86" y="7"/><text fill="#000000" font-family="sans-serif" font-size="12" lengthAdjust="spacing" textLength="35" x="89" y="24.457">Object</text><!--MD5=[59cc430e03c2cf332b5b6549cd1727c6]
class Given--><rect fill="#FFFFFF" filter="url(#f1cpttl667w56g)" height="25.0938" id="Given" style="stroke:#000000;stroke-width:1.5;" width="37" x="245" y="126"/><text fill="#000000" font-family="sans-serif" font-size="12" lengthAdjust="spacing" textLength="31" x="248" y="143.457">Given</text><!--MD5=[959c28e454ac47a012202d913da36e98]
link ValDef to Defines--><path codeLine="7" d="M78.91,138.5 C89.22,138.5 112.2,138.5 112.2,138.5 " fill="none" id="ValDef-Defines" style="stroke:#000000;stroke-width:1.0;"/><polygon fill="#FFFFFF" points="124.2,138.5,118.2,134.5,112.2,138.5,118.2,142.5,124.2,138.5" style="stroke:#000000;stroke-width:1.0;"/><polygon fill="#000000" points="65.55,138.5,74.55,142.5,70.55,138.5,74.55,134.5,65.55,138.5" style="stroke:#000000;stroke-width:1.0;"/><line style="stroke:#000000;stroke-width:1.0;" x1="70.55" x2="78.55" y1="138.5" y2="138.5"/><text fill="#000000" font-family="sans-serif" font-size="13" lengthAdjust="spacing" textLength="22" x="84" y="131.9951">vals</text><text fill="#000000" font-family="sans-serif" font-size="13" lengthAdjust="spacing" textLength="5" x="73.6453" y="133.2894">*</text><!--MD5=[1ad215d0d5677c7a914f8eefe604fdfa]
link DefDef to Defines--><path codeLine="8" d="M181.92,44.4 C174.68,64.56 156.7069,114.603 156.7069,114.603 " fill="none" id="DefDef-Defines" style="stroke:#000000;stroke-width:1.0;"/><polygon fill="#FFFFFF" points="152.66,125.9,158.4491,121.6005,156.7069,114.603,150.9178,118.9025,152.66,125.9" style="stroke:#000000;stroke-width:1.0;"/><polygon fill="#000000" points="186.32,32.15,179.5118,39.2668,184.6289,36.8553,187.0404,41.9725,186.32,32.15" style="stroke:#000000;stroke-width:1.0;"/><line style="stroke:#000000;stroke-width:1.0;" x1="184.6289" x2="181.925" y1="36.8553" y2="44.38"/><text fill="#000000" font-family="sans-serif" font-size="13" lengthAdjust="spacing" textLength="0" x="190.5" y="76.4951"/><text fill="#000000" font-family="sans-serif" font-size="13" lengthAdjust="spacing" textLength="24" x="178.5" y="92.8467">defs</text><text fill="#000000" font-family="sans-serif" font-size="13" lengthAdjust="spacing" textLength="5" x="168.4858" y="53.5671">*</text><!--MD5=[eb77383182bfae19b2740345cdd1d790]
link Defines to VarDef--><path codeLine="9" d="M113.5628,155.4082 C113.5628,155.4082 85.82,171.23 74.5,181 C62.19,191.62 50.98,205.98 42.7,217.94 " fill="none" id="Defines-VarDef" style="stroke:#000000;stroke-width:1.0;"/><polygon fill="#000000" points="35.47,228.86,43.7712,223.56,38.2283,224.6896,37.0986,219.1467,35.47,228.86" style="stroke:#000000;stroke-width:1.0;"/><line style="stroke:#000000;stroke-width:1.0;" x1="38.2283" x2="42.645" y1="224.6896" y2="218.02"/><polygon fill="#FFFFFF" points="124.28,150.01,117.122,149.1367,113.5628,155.4082,120.7208,156.2815,124.28,150.01" style="stroke:#000000;stroke-width:1.0;"/><text fill="#000000" font-family="sans-serif" font-size="13" lengthAdjust="spacing" textLength="23" x="75.5" y="195.4951">vars</text><text fill="#000000" font-family="sans-serif" font-size="13" lengthAdjust="spacing" textLength="5" x="32.3139" y="217.8943">*</text><!--MD5=[60f117f09f89ccd7a892a7796302c33c]
link Defines to TypeDef--><path codeLine="10" d="M124.7325,159.5725 C124.7325,159.5725 113.45,173.42 110.5,181 C106.28,191.85 105.78,204.67 106.53,215.62 " fill="none" id="Defines-TypeDef" style="stroke:#000000;stroke-width:1.0;"/><polygon fill="#000000" points="108.05,228.63,110.9747,219.2254,107.4677,223.664,103.0291,220.1571,108.05,228.63" style="stroke:#000000;stroke-width:1.0;"/><line style="stroke:#000000;stroke-width:1.0;" x1="107.4677" x2="106.55" y1="223.664" y2="215.72"/><polygon fill="#FFFFFF" points="133.29,151.16,126.2071,152.5137,124.7325,159.5725,131.8154,158.2187,133.29,151.16" style="stroke:#000000;stroke-width:1.0;"/><text fill="#000000" font-family="sans-serif" font-size="13" lengthAdjust="spacing" textLength="32" x="111.5" y="195.4951">types</text><text fill="#000000" font-family="sans-serif" font-size="13" lengthAdjust="spacing" textLength="5" x="90.8753" y="218.2176">*</text><!--MD5=[a3908f2a4bea41187a4673946488cccd]
link Defines to Class--><path codeLine="11" d="M157.9354,162.1669 C157.9354,162.1669 173.86,200.47 180.56,216.6 " fill="none" id="Defines-Class" style="stroke:#000000;stroke-width:1.0;"/><polygon fill="#000000" points="185.61,228.74,185.8508,218.8941,183.6916,224.1227,178.463,221.9635,185.61,228.74" style="stroke:#000000;stroke-width:1.0;"/><line style="stroke:#000000;stroke-width:1.0;" x1="183.6916" x2="180.62" y1="224.1227" y2="216.735"/><polygon fill="#FFFFFF" points="153.32,151.09,151.9354,158.1669,157.9354,162.1669,159.32,155.09,153.32,151.09" style="stroke:#000000;stroke-width:1.0;"/><text fill="#000000" font-family="sans-serif" font-size="13" lengthAdjust="spacing" textLength="45" x="172.5" y="195.4951">classes</text><text fill="#000000" font-family="sans-serif" font-size="13" lengthAdjust="spacing" textLength="0" x="181.8236" y="201.8764"/><text fill="#000000" font-family="sans-serif" font-size="13" lengthAdjust="spacing" textLength="5" x="171.3236" y="218.2279">*</text><!--MD5=[93217ada52c6a5ecd34f2fec0ec79c89]
link Defines to Enum--><path codeLine="12" d="M183.3942,154.3472 C183.3942,154.3472 214.01,170.68 226.5,181 C239.24,191.52 250.94,205.88 259.6,217.86 " fill="none" id="Defines-Enum" style="stroke:#000000;stroke-width:1.0;"/><polygon fill="#000000" points="267.17,228.81,265.3345,219.1337,264.3234,224.6994,258.7576,223.6883,267.17,228.81" style="stroke:#000000;stroke-width:1.0;"/><line style="stroke:#000000;stroke-width:1.0;" x1="264.3234" x2="259.78" y1="224.6994" y2="218.12"/><polygon fill="#FFFFFF" points="172.54,149.23,176.2614,155.4067,183.3942,154.3472,179.6728,148.1705,172.54,149.23" style="stroke:#000000;stroke-width:1.0;"/><text fill="#000000" font-family="sans-serif" font-size="13" lengthAdjust="spacing" textLength="39" x="244.5" y="195.4951">enums</text><text fill="#000000" font-family="sans-serif" font-size="13" lengthAdjust="spacing" textLength="0" x="263.7824" y="201.9669"/><text fill="#000000" font-family="sans-serif" font-size="13" lengthAdjust="spacing" textLength="5" x="259.2824" y="218.3185">*</text><!--MD5=[8ea9b8ee04a16d2ec049dc30b55ddb0e]
link Object to Defines--><path codeLine="13" d="M104.63,45.47 C104.42,60.64 105.83,80.08 112.5,96 C115.54,103.26 126.4984,117.2063 126.4984,117.2063 " fill="none" id="Object-Defines" style="stroke:#000000;stroke-width:1.0;"/><polygon fill="#FFFFFF" points="134.77,125.9,133.5321,118.7959,126.4984,117.2063,127.7363,124.3103,134.77,125.9" style="stroke:#000000;stroke-width:1.0;"/><polygon fill="#000000" points="105.25,32.02,100.8485,40.8306,105.0247,37.0149,108.8404,41.1911,105.25,32.02" style="stroke:#000000;stroke-width:1.0;"/><line style="stroke:#000000;stroke-width:1.0;" x1="105.0247" x2="104.655" y1="37.0149" y2="45.005"/><text fill="#000000" font-family="sans-serif" font-size="13" lengthAdjust="spacing" textLength="0" x="136.5" y="76.4951"/><text fill="#000000" font-family="sans-serif" font-size="13" lengthAdjust="spacing" textLength="42" x="113.5" y="92.8467">objects</text><text fill="#000000" font-family="sans-serif" font-size="13" lengthAdjust="spacing" textLength="5" x="89.5078" y="53.6221">*</text><text fill="#000000" font-family="sans-serif" font-size="13" lengthAdjust="spacing" textLength="0" x="96.0078" y="69.9736"/><!--MD5=[5b29815adf7f2a0a80b72ce2102a76de]
link Defines to Given--><path codeLine="14" d="M184.61,138.5 C184.61,138.5 217.4,138.5 231.59,138.5 " fill="none" id="Defines-Given" style="stroke:#000000;stroke-width:1.0;"/><polygon fill="#000000" points="244.73,138.5,235.73,134.5,239.73,138.5,235.73,142.5,244.73,138.5" style="stroke:#000000;stroke-width:1.0;"/><line style="stroke:#000000;stroke-width:1.0;" x1="239.73" x2="231.73" y1="138.5" y2="138.5"/><polygon fill="#FFFFFF" points="172.61,138.5,178.61,142.5,184.61,138.5,178.61,134.5,172.61,138.5" style="stroke:#000000;stroke-width:1.0;"/><text fill="#000000" font-family="sans-serif" font-size="13" lengthAdjust="spacing" textLength="36" x="190.75" y="131.9951">givens</text><text fill="#000000" font-family="sans-serif" font-size="13" lengthAdjust="spacing" textLength="5" x="231.8867" y="133.0927">*</text><!--MD5=[ce6ebfcb535409d9d90b80c7ef3448f7]
@startuml Defines 
abstract class Defines {
    \n
    \n
    \n 
}

Defines o- -left> "*" ValDef : vals 
Defines o- -up> " *  " DefDef : "\n defs" 
Defines o- -> "*" VarDef : vars
Defines o- -> " *  " TypeDef : types
Defines o- -> "    \n*" Class : classes
Defines o- -> "\n*" Enum  : enums 
Defines o- -up> " *  \n" Object : "\nobjects" 
Defines o- -right> "*" Given : givens 

hide circle
hide members 

skinparam class {
    BackgroundColor White
    ArrowColor Black
    BorderColor Black
}

@enduml

PlantUML version 1.2021.00(Sun Jan 10 11:25:05 CET 2021)
(GPL source distribution)
Java Runtime: Java(TM) SE Runtime Environment
JVM: Java HotSpot(TM) 64-Bit Server VM
Default Encoding: Cp1252
Language: de
Country: DE
--></g></svg>