<?xml version="1.0" encoding="UTF-8" standalone="no"?><svg xmlns="http://www.w3.org/2000/svg" xmlns:xlink="http://www.w3.org/1999/xlink" contentScriptType="application/ecmascript" contentStyleType="text/css" height="53px" preserveAspectRatio="none" style="width:81px;height:53px;" version="1.1" viewBox="0 0 81 53" width="81px" zoomAndPan="magnify"><defs><filter height="300%" id="f1m94057rd6b7c" width="300%" x="-1" y="-1"><feGaussianBlur result="blurOut" stdDeviation="2.0"/><feColorMatrix in="blurOut" result="blurOut2" type="matrix" values="0 0 0 0 0 0 0 0 0 0 0 0 0 0 0 0 0 0 .4 0"/><feOffset dx="4.0" dy="4.0" in="blurOut2" result="blurOut3"/><feBlend in="SourceGraphic" in2="blurOut3" mode="normal"/></filter></defs><g><!--MD5=[3d4177ac58b4411586d067f34e84928f]
class List--><rect codeLine="1" fill="#FFFFFF" filter="url(#f1m94057rd6b7c)" height="32" id="List" style="stroke:#1B1F23;stroke-width:1.5;" width="60" x="7" y="7"/><ellipse cx="22" cy="23" fill="#B4A7E5" rx="11" ry="11" style="stroke:#1B1F23;stroke-width:1.0;"/><path d="M22.9531,19.6406 L22.9531,26.2969 L24.6719,26.2969 Q25.2813,26.2969 25.5469,26.5313 Q25.8125,26.7656 25.8125,27.1563 Q25.8125,27.5313 25.5469,27.7656 Q25.2813,28 24.6719,28 L19.5313,28 Q18.9219,28 18.6563,27.7656 Q18.3906,27.5313 18.3906,27.1406 Q18.3906,26.7656 18.6563,26.5313 Q18.9219,26.2969 19.5313,26.2969 L21.25,26.2969 L21.25,19.6406 L19.5313,19.6406 Q18.9219,19.6406 18.6563,19.4063 Q18.3906,19.1719 18.3906,18.7813 Q18.3906,18.4063 18.6563,18.1719 Q18.9219,17.9375 19.5313,17.9375 L24.6719,17.9375 Q25.2813,17.9375 25.5469,18.1719 Q25.8125,18.4063 25.8125,18.7813 Q25.8125,19.1719 25.5469,19.4063 Q25.2813,19.6406 24.6719,19.6406 L22.9531,19.6406 Z " fill="#000000"/><text fill="#6F42C1" font-family="Source Code Pro" font-size="12" font-style="italic" lengthAdjust="spacingAndGlyphs" textLength="28" x="36" y="27.2637">List</text><!--MD5=[b6fc17ef814aaa08c826d38dcd19023d]
@startuml
interface List 

hide methods
hide attributes

skinparam defaultFontName Source Code Pro

skinparam ClassStereotypeFontColor #1b1f23

skinparam class {
    BackgroundColor White
    BorderColor #1b1f23
    ArrowColor #1b1f23
    FontColor #6f42c1
}

skinparam note {
    BackgroundColor White
    BorderColor #1b1f23
    ArrowColor #1b1f23
    FontColor #d73a49
}


skinparam stereotype {
    FontColor #d73a49
}
@enduml

PlantUML version 1.2020.22(Sun Dec 06 10:36:27 CET 2020)
(GPL source distribution)
Java Runtime: Java(TM) SE Runtime Environment
JVM: Java HotSpot(TM) 64-Bit Server VM
Default Encoding: Cp1252
Language: de
Country: DE
--></g></svg>