<?xml version="1.0" encoding="UTF-8" standalone="no"?><svg xmlns="http://www.w3.org/2000/svg" xmlns:xlink="http://www.w3.org/1999/xlink" contentScriptType="application/ecmascript" contentStyleType="text/css" height="145px" preserveAspectRatio="none" style="width:123px;height:145px;" version="1.1" viewBox="0 0 123 145" width="123px" zoomAndPan="magnify"><defs><filter height="300%" id="f10po1i4wpge0v" width="300%" x="-1" y="-1"><feGaussianBlur result="blurOut" stdDeviation="2.0"/><feColorMatrix in="blurOut" result="blurOut2" type="matrix" values="0 0 0 0 0 0 0 0 0 0 0 0 0 0 0 0 0 0 .4 0"/><feOffset dx="4.0" dy="4.0" in="blurOut2" result="blurOut3"/><feBlend in="SourceGraphic" in2="blurOut3" mode="normal"/></filter></defs><g><!--MD5=[e5192d39c070dac6a79b288c93719d10]
class Classifier--><rect codeLine="2" fill="#FFFFFF" filter="url(#f10po1i4wpge0v)" height="32" id="Classifier" style="stroke:#1B1F23;stroke-width:1.5;" width="102" x="7" y="7"/><ellipse cx="22" cy="23" fill="#BB6785" rx="11" ry="11" style="stroke:#1B1F23;stroke-width:1.0;"/><path d="M19.4688,19.4688 L19.4688,19.9375 Q19.8906,19.5313 20.2266,19.3828 Q20.5625,19.2344 21,19.2344 Q21.375,19.2344 21.7422,19.4141 Q22.1094,19.5938 22.4531,19.9531 Q22.8906,19.5938 23.3438,19.4141 Q23.7969,19.2344 24.2656,19.2344 Q25.2188,19.2344 25.8125,19.75 Q26.5938,20.4063 26.5938,21.4844 L26.5938,25.2969 Q27.125,25.2969 27.3828,25.5391 Q27.6406,25.7813 27.6406,26.1563 Q27.6406,26.5313 27.3828,26.7656 Q27.125,27 26.5,27 L24.8906,27 L24.8906,21.625 Q24.8906,21.2344 24.75,21.0859 Q24.6094,20.9375 24.3125,20.9375 Q24.0313,20.9375 23.7969,21.0938 Q23.4844,21.2969 23.0469,21.875 L23.0469,25.2969 Q23.5781,25.2969 23.8359,25.5391 Q24.0938,25.7813 24.0938,26.1563 Q24.0938,26.5313 23.8359,26.7656 Q23.5781,27 22.9531,27 L21.3438,27 L21.3438,21.625 Q21.3438,21.25 21.1953,21.0938 Q21.0469,20.9375 20.7656,20.9375 Q20.4688,20.9375 20.1719,21.125 Q19.875,21.3125 19.4688,21.875 L19.4688,25.2969 Q20,25.2969 20.2656,25.5391 Q20.5313,25.7813 20.5313,26.1563 Q20.5313,26.5313 20.2656,26.7656 Q20,27 19.3906,27 L17.8594,27 Q17.2344,27 16.9766,26.7656 Q16.7188,26.5313 16.7188,26.1406 Q16.7188,25.7656 16.9766,25.5313 Q17.2344,25.2969 17.7656,25.2969 L17.7656,21.1719 Q17.2344,21.1719 16.9766,20.9297 Q16.7188,20.6875 16.7188,20.3125 Q16.7188,19.9375 16.9766,19.7031 Q17.2344,19.4688 17.8594,19.4688 L19.4688,19.4688 Z " fill="#000000"/><text fill="#6F42C1" font-family="Source Code Pro" font-size="12" lengthAdjust="spacingAndGlyphs" textLength="70" x="36" y="27.2637">Classifier</text><!--MD5=[41e1c6cf192918703501b24b2053926c]
class Class--><rect codeLine="4" fill="#FFFFFF" filter="url(#f10po1i4wpge0v)" height="32" id="Class" style="stroke:#1B1F23;stroke-width:1.5;" width="67" x="24.5" y="99"/><ellipse cx="39.5" cy="115" fill="#FF7700" rx="11" ry="11" style="stroke:#1B1F23;stroke-width:1.0;"/><path d="M37.4375,113.2188 L37.4375,118.2969 L38.0625,118.2969 Q38.6719,118.2969 38.9297,118.5313 Q39.1875,118.7656 39.1875,119.1563 Q39.1875,119.5313 38.9297,119.7656 Q38.6719,120 38.0625,120 L35.8281,120 Q35.2031,120 34.9453,119.7656 Q34.6875,119.5313 34.6875,119.1406 Q34.6875,118.7656 34.9453,118.5313 Q35.2031,118.2969 35.7344,118.2969 L35.7344,111.6406 Q35.2969,111.5938 35.0625,111.3672 Q34.8281,111.1406 34.8281,110.7813 Q34.8281,110.4063 35.0938,110.1719 Q35.3594,109.9375 35.9688,109.9375 L37.8438,109.9375 L40.1563,115.0625 L42.4219,109.9375 L44.3125,109.9375 Q44.9219,109.9375 45.1875,110.1719 Q45.4531,110.4063 45.4531,110.7813 Q45.4531,111.1406 45.2188,111.3672 Q44.9844,111.5938 44.5469,111.6406 L44.5469,118.2969 Q45.0781,118.2969 45.3359,118.5391 Q45.5938,118.7813 45.5938,119.1563 Q45.5938,119.5313 45.3359,119.7656 Q45.0781,120 44.4688,120 L42.2188,120 Q41.6094,120 41.3516,119.7656 Q41.0938,119.5313 41.0938,119.1406 Q41.0938,118.7656 41.3516,118.5313 Q41.6094,118.2969 42.2188,118.2969 L42.8438,118.2969 L42.8438,113.2188 L40.8906,117.6094 L39.4219,117.6094 L37.4375,113.2188 Z " fill="#000000"/><text fill="#6F42C1" font-family="Source Code Pro" font-size="12" lengthAdjust="spacingAndGlyphs" textLength="35" x="53.5" y="119.2637">Class</text><!--MD5=[35545f073a148266a43f359c4e81180f]
link Classifier to Class--><path codeLine="9" d="M58,39.27 C58,54.23 58,77.12 58,93.63 " fill="none" id="Classifier-to-Class" style="stroke:#1B1F23;stroke-width:1.0;"/><polygon fill="#1B1F23" points="58,98.96,62,89.96,58,93.96,54,89.96,58,98.96" style="stroke:#1B1F23;stroke-width:1.0;"/><!--MD5=[fa1e8c758a85ac4a96374d2b5de6729c]
@startuml

class Classifier << (m,#BB6785) >>

class Class  << (M,#FF7700) >>

hide members 
show Class circle 

Classifier - -> Class 

skinparam defaultFontName Source Code Pro

skinparam ClassStereotypeFontColor #1b1f23

skinparam class {
    BackgroundColor White
    BorderColor #1b1f23
    ArrowColor #1b1f23
    FontColor #6f42c1
}

skinparam note {
    BackgroundColor White
    BorderColor #1b1f23
    ArrowColor #1b1f23
    FontColor #d73a49
}


skinparam stereotype {
    FontColor #d73a49
}
@enduml

PlantUML version 1.2020.22(Sun Dec 06 10:36:27 CET 2020)
(GPL source distribution)
Java Runtime: Java(TM) SE Runtime Environment
JVM: Java HotSpot(TM) 64-Bit Server VM
Default Encoding: Cp1252
Language: de
Country: DE
--></g></svg>